<?xml version="1.0" encoding="utf-8"?>
<!-- Generator: Adobe Illustrator 16.0.0, SVG Export Plug-In . SVG Version: 6.00 Build 0)  -->
<!DOCTYPE svg PUBLIC "-//W3C//DTD SVG 1.1//EN" "http://www.w3.org/Graphics/SVG/1.1/DTD/svg11.dtd">
<svg version="1.1" xmlns="http://www.w3.org/2000/svg" xmlns:xlink="http://www.w3.org/1999/xlink" x="0px" y="0px"
	 width="73.074px" height="69.419px" viewBox="0 0 73.074 69.419" enable-background="new 0 0 73.074 69.419" xml:space="preserve">
<g id="Layer_3">
	<g>
		<g id="Profile">
			<g transform="translate(0,-952.36218)">
				<path fill="#4F77BB" d="M15.497,952.362c-0.696,0-1.38,0.269-1.911,0.798c-4.223,4.283-8.525,8.554-12.79,12.817
					c-1.062,1.063-1.062,2.79,0,3.852c1.064,1.063,2.792,1.063,3.854,0l8.136-8.133v57.344c0,1.514,1.227,2.74,2.74,2.74
					s2.74-1.226,2.74-2.74v-57.344l8.135,8.133c1.062,1.063,2.791,1.063,3.853,0c1.065-1.063,1.065-2.79,0-3.852l-12.816-12.817
					C16.908,952.631,16.195,952.362,15.497,952.362L15.497,952.362z M54.805,952.362c-5.516,0-10.05,4.53-10.05,10.047
					c0,5.515,4.534,10.047,10.05,10.047c5.519,0,10.048-4.532,10.048-10.047C64.853,956.892,60.323,952.362,54.805,952.362z
					 M54.805,957.843c2.556,0,4.568,2.012,4.568,4.567c0,2.554-2.013,4.567-4.568,4.567c-2.554,0-4.563-2.013-4.563-4.567
					C50.241,959.854,52.251,957.843,54.805,957.843z M54.805,973.37c-4.784,0-9.14,1.24-12.476,3.397
					c-3.333,2.157-5.794,5.436-5.794,9.305v32.969c0.002,1.514,1.226,2.74,2.742,2.74h31.057c1.513,0,2.741-1.226,2.741-2.74
					v-32.969c0-3.871-2.46-7.148-5.796-9.305C63.943,974.61,59.591,973.37,54.805,973.37L54.805,973.37z M54.805,978.851
					c3.818,0,7.228,1.036,9.505,2.511s3.283,3.183,3.283,4.71v30.228H42.015v-30.228c0-1.527,1.006-3.236,3.283-4.71
					C47.578,979.888,50.988,978.851,54.805,978.851z"/>
			</g>
		</g>
	</g>
</g>
<g id="Status_bar">
</g>
<g id="Guides">
</g>
</svg>
