<?xml version="1.0" encoding="utf-8"?>
<!-- Generator: Adobe Illustrator 16.0.0, SVG Export Plug-In . SVG Version: 6.00 Build 0)  -->
<!DOCTYPE svg PUBLIC "-//W3C//DTD SVG 1.1//EN" "http://www.w3.org/Graphics/SVG/1.1/DTD/svg11.dtd">
<svg version="1.1" xmlns="http://www.w3.org/2000/svg" xmlns:xlink="http://www.w3.org/1999/xlink" x="0px" y="0px"
	 width="261.048px" height="215.048px" viewBox="0 0 261.048 215.048" enable-background="new 0 0 261.048 215.048"
	 xml:space="preserve">
<g id="Layer_3">
	<g>
		<g id="_x37_.1_8_">
			<g id="_x37_.1_9_">
				<path fill="none" stroke="#D8D9D8" stroke-width="3.45" stroke-miterlimit="10" d="M259.323,208.725
					c0,2.54-2.059,4.599-4.6,4.599H6.324c-2.541,0-4.6-2.059-4.6-4.599V6.324c0-2.54,2.059-4.6,4.6-4.6h248.399
					c2.541,0,4.6,2.06,4.6,4.6V208.725z"/>
			</g>
		</g>
		<g>
			<g>
				<path fill="#4592BC" d="M190.856,72.037h-9.678v-7.281c0-4.008-3.257-7.272-7.258-7.272h-17.019
					c-4.003,0-7.258,3.265-7.258,7.272v7.281h-38.812v-7.281c0-4.008-3.254-7.272-7.256-7.272H86.559
					c-4.004,0-7.257,3.265-7.257,7.272v7.281H69.62c-6.701,0-12.149,5.447-12.149,12.141v55.767c0,6.694,5.448,12.14,12.149,12.14
					h121.236c6.7,0,12.152-5.445,12.152-12.14V84.178C203.009,77.484,197.557,72.037,190.856,72.037z M154.495,64.756
					c0-1.336,1.08-2.421,2.407-2.421h17.019c1.326,0,2.407,1.085,2.407,2.421v7.281h-21.833V64.756L154.495,64.756z M84.152,64.756
					c0-1.336,1.08-2.421,2.406-2.421h17.019c1.325,0,2.406,1.085,2.406,2.421v7.281H84.152V64.756L84.152,64.756z M198.157,139.944
					c0,4.019-3.274,7.29-7.301,7.29H69.62c-4.023,0-7.299-3.271-7.299-7.29V84.178c0-4.018,3.275-7.288,7.299-7.288h12.105h26.685
					h43.66h26.682h12.104c4.026,0,7.301,3.271,7.301,7.288V139.944L198.157,139.944z"/>
			</g>
		</g>
		<g>
			<g>
				<rect x="79.302" y="108.424" fill="#4592BC" width="31.531" height="4.85"/>
			</g>
		</g>
		<g>
			<g>
				<polygon fill="#4592BC" points="169.048,108.424 169.048,93.869 164.199,93.869 164.199,108.424 149.645,108.424 
					149.645,113.273 164.199,113.273 164.199,127.828 169.048,127.828 169.048,113.273 183.604,113.273 183.604,108.424 				"/>
			</g>
		</g>
	</g>
</g>
<g id="Status_bar">
</g>
<g id="Guides">
</g>
</svg>
