<?xml version="1.0" encoding="utf-8"?>
<!-- Generator: Adobe Illustrator 16.0.0, SVG Export Plug-In . SVG Version: 6.00 Build 0)  -->
<!DOCTYPE svg PUBLIC "-//W3C//DTD SVG 1.1//EN" "http://www.w3.org/Graphics/SVG/1.1/DTD/svg11.dtd">
<svg version="1.1" xmlns="http://www.w3.org/2000/svg" xmlns:xlink="http://www.w3.org/1999/xlink" x="0px" y="0px"
	 width="261.05px" height="215.05px" viewBox="0 0 261.05 215.05" enable-background="new 0 0 261.05 215.05" xml:space="preserve">
<g id="Layer_3">
	<g>
		<g id="_x37_.1_6_">
			<g id="_x37_.1_7_">
				<path fill="none" stroke="#D8D9D8" stroke-width="3.45" stroke-miterlimit="10" d="M259.325,208.725c0,2.54-2.06,4.6-4.6,4.6
					H6.325c-2.541,0-4.6-2.06-4.6-4.6V6.325c0-2.54,2.059-4.6,4.6-4.6h248.399c2.54,0,4.6,2.06,4.6,4.6V208.725z"/>
			</g>
			<g>
				<g>
					<path fill="#C75959" d="M129.999,144.711c-14.551,0-26.387-11.834-26.387-26.382c0-4.166,0.932-8.182,2.699-11.617
						c1.153-2.267,1.616-2.921,2.565-4.264c0.382-0.54,0.844-1.198,1.497-2.166l1.342-1.996c2.312-3.413,4.926-7.276,7.159-11.158
						c4.955-8.548,8.43-16.827,8.47-16.905c0.443-1.075,1.497-1.771,2.655-1.771c0,0,0,0,0.005,0c1.159,0,2.212,0.702,2.656,1.776
						c0.034,0.079,3.463,8.301,8.441,16.894c2.261,3.902,4.903,7.812,7.238,11.264l1.282,1.891c0.63,0.938,1.086,1.592,1.462,2.12
						c0.989,1.4,1.44,2.042,2.65,4.443c1.725,3.341,2.648,7.323,2.648,11.49C156.378,132.879,144.547,144.711,129.999,144.711z
						 M129.992,78.322c-1.522,3.206-3.632,7.385-6.129,11.692c-2.334,4.049-5.13,8.183-7.379,11.501l-1.334,1.974
						c-0.678,1.018-1.169,1.715-1.568,2.278c-0.793,1.125-1.181,1.668-2.149,3.57c-1.349,2.632-2.063,5.736-2.063,8.991
						c0,11.372,9.25,20.624,20.629,20.624c11.372,0,20.622-9.252,20.622-20.624c0-3.25-0.697-6.32-2.018-8.873
						c-1.024-2.031-1.402-2.564-2.228-3.739c-0.393-0.559-0.872-1.237-1.535-2.228l-1.271-1.873
						c-2.267-3.358-5.089-7.531-7.451-11.602C133.614,85.688,131.512,81.517,129.992,78.322z"/>
				</g>
				<g>
					<path fill="#C75959" d="M181.851,69.305l-2.034,2.034l-2.073,2.074c7.416,9.937,11.861,22.211,11.861,35.535
						c0,32.872-26.74,59.614-59.606,59.614c-13.328,0-25.601-4.448-35.54-11.865c-0.125-0.095-0.232-0.215-0.359-0.312h5.62
						c1.592,0,2.879-1.288,2.879-2.879s-1.289-2.878-2.879-2.878H87.561h-0.342c-1.591,0-2.879,1.288-2.879,2.878v2.026v10.481
						c0,1.592,1.288,2.879,2.879,2.879c1.591,0,2.878-1.289,2.878-2.879v-5.434c0.09,0.07,0.166,0.155,0.256,0.224
						c11.013,8.441,24.732,13.516,39.648,13.516c36.041,0,65.365-29.328,65.365-65.373C195.364,94.037,190.29,80.319,181.851,69.305
						z"/>
					<path fill="#C75959" d="M129.999,49.336c13.32,0,25.594,4.447,35.529,11.861c0.358,0.268,0.662,0.601,1.013,0.875h-6.438
						c-1.592,0-2.88,1.289-2.88,2.88s1.289,2.879,2.88,2.879h12.501c0.094,0,0.173-0.045,0.265-0.054
						c1.46-0.139,2.612-1.329,2.612-2.825v-2.738v-9.767c0-1.594-1.287-2.879-2.877-2.879c-1.594,0-2.88,1.288-2.88,2.879v4.721
						c-0.031-0.024-0.058-0.053-0.088-0.076c-11.012-8.438-24.729-13.513-39.638-13.513c-36.043,0-65.371,29.327-65.371,65.37
						c0,14.911,5.074,28.629,13.511,39.641l2.034-2.034l2.072-2.072c-7.412-9.937-11.859-22.212-11.859-35.534
						C70.385,76.078,97.126,49.336,129.999,49.336z"/>
				</g>
			</g>
		</g>
	</g>
</g>
<g id="Status_bar">
</g>
<g id="Guides">
</g>
</svg>
