<?xml version="1.0" encoding="utf-8"?>
<!-- Generator: Adobe Illustrator 16.0.0, SVG Export Plug-In . SVG Version: 6.00 Build 0)  -->
<!DOCTYPE svg PUBLIC "-//W3C//DTD SVG 1.1//EN" "http://www.w3.org/Graphics/SVG/1.1/DTD/svg11.dtd">
<svg version="1.1" xmlns="http://www.w3.org/2000/svg" xmlns:xlink="http://www.w3.org/1999/xlink" x="0px" y="0px"
	 width="261.05px" height="215.05px" viewBox="0 0 261.05 215.05" enable-background="new 0 0 261.05 215.05" xml:space="preserve">
<g id="Layer_3">
	<g>
		<g id="_x37_.1_1_">
			<g id="_x37_.1">
				<path fill="none" stroke="#D8D9D8" stroke-width="3.45" stroke-miterlimit="10" d="M259.325,208.724
					c0,2.541-2.06,4.601-4.6,4.601H6.325c-2.541,0-4.6-2.06-4.6-4.601V6.325c0-2.541,2.059-4.6,4.6-4.6h248.399
					c2.54,0,4.6,2.06,4.6,4.6V208.724z"/>
				<g>
					<path fill="#48ADAA" d="M186.737,112.361l-60.659-60.658c0.911-1.404,0.753-3.328-0.468-4.576c-1.429-1.43-3.743-1.43-5.173,0
						l-41.599,41.6c-1.431,1.43-1.431,3.745,0,5.174c1.273,1.274,2.938,1.481,4.575,0.467l60.658,60.658
						c9.074,9.074,27.117,15.549,42.667,0C202.439,139.322,195.575,121.202,186.737,112.361z M88.637,89.248l32.344-32.319
						l43.187,43.185H99.506L88.637,89.248z M181.588,149.853c-11.154,11.153-26.052,6.292-32.318,0l-42.458-42.432h64.662
						l10.114,10.114C188.114,124.06,192.898,138.543,181.588,149.853z"/>
					<path fill="#48ADAA" d="M81.332,117.666c-1.144,0-2.21,0.52-2.886,1.429c-2.418,3.12-14.405,19.136-14.405,27.482
						c0,9.517,7.748,17.29,17.291,17.29c9.517,0,17.291-7.747,17.291-17.29c0-8.346-11.986-24.362-14.378-27.507
						C83.515,118.186,82.451,117.666,81.332,117.666z M81.332,156.561c-5.485,0-9.957-4.472-9.957-9.958
						c0-3.587,5.173-12.272,9.982-19.084c4.811,6.838,9.958,15.497,9.958,19.084C91.29,152.089,86.818,156.561,81.332,156.561z"/>
				</g>
			</g>
		</g>
	</g>
</g>
<g id="Status_bar">
</g>
<g id="Guides">
</g>
</svg>
