<?xml version="1.0" encoding="utf-8"?>
<!-- Generator: Adobe Illustrator 16.0.0, SVG Export Plug-In . SVG Version: 6.00 Build 0)  -->
<!DOCTYPE svg PUBLIC "-//W3C//DTD SVG 1.1//EN" "http://www.w3.org/Graphics/SVG/1.1/DTD/svg11.dtd">
<svg version="1.1" id="Layer_1" xmlns="http://www.w3.org/2000/svg" xmlns:xlink="http://www.w3.org/1999/xlink" x="0px" y="0px"
	 width="26.074px" height="26.074px" viewBox="0 0 26.074 26.074" enable-background="new 0 0 26.074 26.074" xml:space="preserve">
<g id="Profile_picture_1_">
	<circle fill="#4F77BB" cx="13.037" cy="13.037" r="13.037"/>
	<g>
		<g>
			<path fill="#FFFFFF" d="M6.237,10.21v6.262c0,0.956,0.776,1.731,1.732,1.731h10.728c0.956,0,1.732-0.775,1.732-1.731V10.21
				c0-0.91-0.739-1.648-1.647-1.648h-2.307l-0.055-0.24c-0.223-0.965-1.071-1.637-2.063-1.637h-2.054
				c-0.987,0-1.836,0.672-2.062,1.637l-0.055,0.24H7.886C6.976,8.562,6.237,9.303,6.237,10.21z M10.472,9.271
				c0.166,0,0.308-0.113,0.345-0.275l0.119-0.516c0.15-0.641,0.712-1.086,1.369-1.086h2.054c0.658,0,1.22,0.445,1.37,1.086
				l0.119,0.516c0.038,0.159,0.18,0.275,0.345,0.275h2.586c0.519,0,0.938,0.42,0.938,0.938v6.262c0,0.564-0.457,1.022-1.022,1.022
				H7.97c-0.565,0-1.022-0.458-1.022-1.022V10.21c0-0.519,0.42-0.938,0.938-0.938H10.472L10.472,9.271z"/>
			<circle fill="#FFFFFF" cx="8.638" cy="10.786" r="0.475"/>
			<path fill="#FFFFFF" d="M13.333,16.382c1.643,0,2.98-1.338,2.98-2.98s-1.338-2.98-2.98-2.98c-1.642,0-2.979,1.335-2.979,2.98
				S11.691,16.382,13.333,16.382z M13.333,11.131c1.252,0,2.271,1.02,2.271,2.271s-1.02,2.271-2.271,2.271
				c-1.251,0-2.271-1.02-2.271-2.271S12.082,11.131,13.333,11.131z"/>
		</g>
	</g>
</g>
</svg>
