<?xml version="1.0" encoding="utf-8"?>
<!-- Generator: Adobe Illustrator 16.0.0, SVG Export Plug-In . SVG Version: 6.00 Build 0)  -->
<!DOCTYPE svg PUBLIC "-//W3C//DTD SVG 1.1//EN" "http://www.w3.org/Graphics/SVG/1.1/DTD/svg11.dtd">
<svg version="1.1" id="Layer_1" xmlns="http://www.w3.org/2000/svg" xmlns:xlink="http://www.w3.org/1999/xlink" x="0px" y="0px"
	 width="261.05px" height="215.05px" viewBox="0 0 261.05 215.05" enable-background="new 0 0 261.05 215.05" xml:space="preserve">
<g>
	<path fill-rule="evenodd" clip-rule="evenodd" fill="#425E80" d="M29.956,73.15c1.78-2.203,2.866-4.485,4.67-5.66
		c17.85-11.649,35.822-23.121,53.76-34.642c6.077-3.895,12.147-7.801,18.236-11.685c4.257-2.721,7.857-2.209,10.863,1.851
		c10.079,13.614,20.072,27.289,30.083,40.958c3.353,4.589,6.694,9.178,9.95,13.833c1.527,2.197,2.751,2.161,4.625,0.268
		c13.169-13.273,26.419-26.492,39.681-39.68c1.68-1.667,1.789-2.981-0.007-4.656c-2.702-2.531-5.265-5.234-7.869-7.887
		c-2.836-2.896-2.495-4.309,1.381-5.684c7.735-2.732,15.465-5.453,23.2-8.192c8.253-2.921,16.469-5.903,24.752-8.715
		c1.168-0.401,2.933-0.359,3.864,0.28c0.554,0.39,0.341,2.447-0.055,3.567c-5.453,15.811-10.998,31.598-16.511,47.384
		c-1.674,4.772-2.885,5.082-6.464,1.571c-2.727-2.678-5.46-5.368-8.105-8.131c-1.644-1.704-2.818-1.698-4.596,0.085
		c-15.488,15.592-31.087,31.087-46.661,46.594c-4.388,4.381-8.733,4.125-12.415-0.908c-11.356-15.525-22.631-31.105-33.95-46.654
		c-2.252-3.098-4.646-6.092-6.768-9.281c-1.335-1.997-2.525-2.222-4.546-0.901c-9.883,6.457-19.84,12.805-29.784,19.177
		c-11.509,7.37-23.008,14.752-34.547,22.086c-2.671,1.691-5.681,3.037-8.529,0.827C32.572,77.672,31.623,75.494,29.956,73.15z"/>
	<path fill-rule="evenodd" clip-rule="evenodd" fill="#22B4A1" d="M199.116,134.242c0-16.848-0.019-33.693,0-50.539
		c0.006-4.126,0.895-5.051,4.99-5.051c9.841,0.013,19.688,0.14,29.535,0.098c2.83-0.012,3.986,1.333,4.054,3.943
		c0.055,2.41,0.078,4.82,0.085,7.218c0.006,31.294,0.006,62.575,0.012,93.845c0,5.514-0.407,5.855-6.043,5.83
		c-9.086-0.049-18.161,0.012-27.247,0c-4.862,0-5.404-0.547-5.41-5.465c-0.006-16.627-0.006-33.254-0.006-49.879
		C199.098,134.242,199.104,134.242,199.116,134.242z"/>
	<path fill-rule="evenodd" clip-rule="evenodd" fill="#22B4A1" d="M130.61,211.131c-39.83,0-79.656,0-119.485,0
		c-1.312-0.014-2.626-0.014-3.932-0.121c-2.398-0.197-3.441-1.57-3.411-3.945c0.094-7.314,0.219-14.631,0.225-21.945
		C4.032,129.762,4.026,74.392,4.039,19.022c0-4.053,1.324-5.405,4.854-5.185c2.078,0.134,3.226,1.01,3.277,3.226
		c0.063,2.835,0.393,5.671,0.393,8.496c0.03,57.232,0.03,114.451,0.039,171.684c0,5.016,0.29,5.186,5.73,5.186
		c16.84,0.023,33.686,0.182,50.528,0.182c25.601-0.023,51.201-0.17,76.805-0.193c35.889-0.037,71.771-0.025,107.653,0.012
		c5.373,0,5.824,0.486,5.721,4.686c-0.055,2.543-0.986,3.871-3.706,3.762c-1.851-0.072-3.707,0.242-5.563,0.242
		C210.053,211.143,170.33,211.143,130.61,211.131z"/>
	<path fill-rule="evenodd" clip-rule="evenodd" fill="#22B4A1" d="M122.826,140.813c0,14.766-0.091,29.529,0.073,44.283
		c0.037,3.139-1.02,4.467-4.022,4.467c-10.496,0-20.994-0.014-31.492,0c-2.413,0-3.268-1.389-3.277-3.566
		c-0.012-3.275-0.012-6.549-0.012-9.836c0.009-25.584,0.018-51.17,0.015-76.762c0-1.088-0.149-2.178-0.17-3.273
		c-0.064-3.42,1.229-4.802,4.589-4.802c9.731-0.006,19.462-0.011,29.194,0.048c4.513,0.025,5.112,0.651,5.116,5.149
		c0.024,14.776,0.009,29.542,0.009,44.292C122.839,140.813,122.835,140.813,122.826,140.813z"/>
	<path fill-rule="evenodd" clip-rule="evenodd" fill="#22B4A1" d="M141.592,154.287c0-9.955,0.007-19.924-0.006-29.869
		c0-5.063,0.348-5.502,5.319-5.514c9.408-0.037,18.817-0.049,28.227-0.012c4.4,0.012,5.344,0.998,5.344,5.465
		c0,4.26-0.184,8.508-0.184,12.768c0.019,15.654,0.099,31.295,0.146,46.947c0.012,4.697-1.041,5.611-5.842,5.574
		c-8.648-0.061-17.284-0.012-25.933-0.012c-1.198,0-2.404-0.012-3.597-0.109c-2.459-0.219-3.566-1.4-3.53-4.064
		C141.653,175.078,141.586,164.67,141.592,154.287z"/>
	<path fill-rule="evenodd" clip-rule="evenodd" fill="#22B4A1" d="M65.205,161.445c0,7.996-0.1,15.982,0.055,23.965
		c0.052,3.045-1.296,4.188-4.065,4.201c-10.176,0-20.354,0.023-30.53,0c-2.732-0.014-4.123-1.156-4.105-4.201
		c0.116-16.309,0.104-32.607,0.067-48.906c-0.013-3.127,1.552-4.418,4.415-4.418c9.959-0.035,19.916-0.061,29.873-0.023
		c3.32,0,4.26,1.033,4.291,4.76c0.067,8.215,0.021,16.42,0.021,24.623C65.217,161.445,65.211,161.445,65.205,161.445z"/>
</g>
</svg>
