<?xml version="1.0" encoding="utf-8"?>
<!-- Generator: Adobe Illustrator 16.0.0, SVG Export Plug-In . SVG Version: 6.00 Build 0)  -->
<!DOCTYPE svg PUBLIC "-//W3C//DTD SVG 1.1//EN" "http://www.w3.org/Graphics/SVG/1.1/DTD/svg11.dtd">
<svg version="1.1" xmlns="http://www.w3.org/2000/svg" xmlns:xlink="http://www.w3.org/1999/xlink" x="0px" y="0px"
	 width="30.233px" height="30.233px" viewBox="0 0 30.233 30.233" enable-background="new 0 0 30.233 30.233" xml:space="preserve">
<g id="Layer_3">
	<g>
		<g id="Table">
			<g id="Icons">
				<path fill="#4C4C4E" d="M17.168,15.116l12.64-12.641c0.567-0.566,0.567-1.484,0-2.05c-0.564-0.567-1.483-0.567-2.05,0
					l-12.642,12.64L2.476,0.427c-0.566-0.565-1.483-0.565-2.052,0c-0.565,0.566-0.565,1.485,0,2.051l12.643,12.642L0.426,27.758
					c-0.566,0.566-0.566,1.483,0,2.05c0.285,0.283,0.653,0.426,1.025,0.426c0.37,0,0.742-0.141,1.024-0.426l12.641-12.641
					l12.642,12.641c0.283,0.283,0.654,0.426,1.024,0.426c0.371,0,0.743-0.141,1.024-0.426c0.566-0.566,0.566-1.483,0-2.05
					L17.168,15.116z"/>
			</g>
		</g>
	</g>
</g>
<g id="Status_bar">
	<rect x="-1082.374" y="-11.359" display="none" width="1242.49" height="60"/>
</g>
<g id="Guides">
</g>
</svg>
