<?xml version="1.0" encoding="utf-8"?>
<!-- Generator: Adobe Illustrator 16.0.0, SVG Export Plug-In . SVG Version: 6.00 Build 0)  -->
<!DOCTYPE svg PUBLIC "-//W3C//DTD SVG 1.1//EN" "http://www.w3.org/Graphics/SVG/1.1/DTD/svg11.dtd">
<svg version="1.1" xmlns="http://www.w3.org/2000/svg" xmlns:xlink="http://www.w3.org/1999/xlink" x="0px" y="0px"
	 width="36.706px" height="42.759px" viewBox="0 0 36.706 42.759" enable-background="new 0 0 36.706 42.759" xml:space="preserve">
<g id="Layer_3">
	<g>
		<g id="Table">
			<g id="Icons">
				<g id="Delete">
					<g>
						<path fill="#4C4C4E" d="M32.253,1.067h-9.731C22.298,0.446,21.706,0,21.008,0h-5.31C15,0,14.407,0.446,14.185,1.067H4.452
							C1.997,1.067,0,3.063,0,5.519V9.57c0,0.89,0.722,1.608,1.61,1.608h3.027V41.15c0,0.887,0.721,1.608,1.611,1.608h24.21
							c0.889,0,1.609-0.722,1.609-1.608v-29.97h3.028c0.889,0,1.609-0.721,1.609-1.61v-4.05C36.706,3.063,34.709,1.067,32.253,1.067
							z M28.849,39.54H7.858V11.181h20.99V39.54z M33.486,7.96H3.221V5.521c0-0.681,0.552-1.233,1.231-1.233h27.801
							c0.68,0,1.233,0.553,1.233,1.233V7.96L33.486,7.96z"/>
						<path fill="#4C4C4E" d="M14.135,33.985c0.889,0,1.609-0.722,1.609-1.61V15.408c0-0.89-0.721-1.611-1.609-1.611
							c-0.89,0-1.61,0.722-1.61,1.611v16.967C12.524,33.264,13.245,33.985,14.135,33.985z"/>
						<path fill="#4C4C4E" d="M22.572,33.985c0.889,0,1.61-0.722,1.61-1.61V15.408c0-0.89-0.722-1.611-1.61-1.611
							c-0.89,0-1.61,0.722-1.61,1.611v16.967C20.962,33.264,21.683,33.985,22.572,33.985z"/>
					</g>
				</g>
			</g>
		</g>
	</g>
</g>
<g id="Status_bar">
	<rect x="-686.966" y="-2.584" display="none" width="1242.49" height="60"/>
</g>
<g id="Guides">
</g>
</svg>
