<?xml version="1.0" encoding="utf-8"?>
<!-- Generator: Adobe Illustrator 16.0.0, SVG Export Plug-In . SVG Version: 6.00 Build 0)  -->
<!DOCTYPE svg PUBLIC "-//W3C//DTD SVG 1.1//EN" "http://www.w3.org/Graphics/SVG/1.1/DTD/svg11.dtd">
<svg version="1.1" id="Layer_3" xmlns="http://www.w3.org/2000/svg" xmlns:xlink="http://www.w3.org/1999/xlink" x="0px" y="0px"
	 width="69.424px" height="97.65px" viewBox="0 0 69.424 97.65" enable-background="new 0 0 69.424 97.65" xml:space="preserve">
<g>
	<path fill="#4F77BB" d="M23.711,97.65H6.714c-1.459,0-2.642-1.183-2.642-2.641V42.789c0-1.458,1.183-2.641,2.642-2.641h16.997
		c1.458,0,2.641,1.183,2.641,2.641v52.221C26.352,96.468,25.169,97.65,23.711,97.65z M9.354,92.368h11.715V45.43H9.354V92.368z"/>
	<g>
		<path fill="#4F77BB" d="M40.709,97.65H23.711c-1.458,0-2.641-1.183-2.641-2.641V42.789c0-1.458,1.183-2.641,2.641-2.641h16.998
			c1.458,0,2.641,1.183,2.641,2.641v52.221C43.35,96.468,42.167,97.65,40.709,97.65z M26.352,92.368h11.716V45.43H26.352V92.368z"/>
		<path fill="#4F77BB" d="M57.627,97.65H40.631c-1.458,0-2.642-1.183-2.642-2.641V42.789c0-1.458,1.184-2.641,2.642-2.641
			s2.641,1.183,2.641,2.641v49.58h11.716V59.719c0-1.458,1.181-2.641,2.64-2.641s2.642,1.183,2.642,2.641v35.29
			C60.269,96.468,59.086,97.65,57.627,97.65z"/>
		<path fill="#4F77BB" d="M54.526,20.073c-0.29,0-0.585-0.048-0.874-0.149c-1.376-0.482-2.101-1.989-1.619-3.366l0.893-2.544
			L30.085,6.008l-0.892,2.544c-0.483,1.377-1.989,2.101-3.366,1.618s-2.102-1.989-1.618-3.366l1.765-5.036
			c0.484-1.377,1.99-2.1,3.366-1.619l27.825,9.754c1.376,0.482,2.102,1.989,1.618,3.366l-1.766,5.036
			C56.638,19.392,55.617,20.073,54.526,20.073z"/>
	</g>
	<path fill="#4F77BB" d="M61.369,50.045c-0.295,0-0.589-0.049-0.873-0.148L1.768,29.312c-1.376-0.483-2.101-1.99-1.618-3.366
		l5.413-15.442C5.794,9.842,6.279,9.301,6.91,8.997c0.632-0.304,1.357-0.344,2.018-0.112L67.656,29.47
		c1.376,0.482,2.101,1.99,1.617,3.366l-5.411,15.442c-0.232,0.661-0.718,1.203-1.348,1.507
		C62.153,49.958,61.762,50.045,61.369,50.045z M6.008,25.2l53.743,18.838l3.665-10.458L9.674,14.743L6.008,25.2z"/>
</g>
</svg>
