<?xml version="1.0" encoding="utf-8"?>
<!-- Generator: Adobe Illustrator 16.0.0, SVG Export Plug-In . SVG Version: 6.00 Build 0)  -->
<!DOCTYPE svg PUBLIC "-//W3C//DTD SVG 1.1//EN" "http://www.w3.org/Graphics/SVG/1.1/DTD/svg11.dtd">
<svg version="1.1" id="Layer_1" xmlns="http://www.w3.org/2000/svg" xmlns:xlink="http://www.w3.org/1999/xlink" x="0px" y="0px"
	 width="105.633px" height="105.634px" viewBox="0 0 105.633 105.634" enable-background="new 0 0 105.633 105.634"
	 xml:space="preserve">
<g>
	<g id="Profile_picture">
		<circle fill="#F0EFEF" stroke="#4F77BB" stroke-width="1.8657" stroke-miterlimit="10" cx="52.816" cy="52.816" r="51.884"/>
		<path fill="#4F77BB" d="M41.042,53.719c-0.5,0-0.896-0.409-0.896-0.908c0-0.5,0.396-0.896,0.896-0.896h10.865V41.049
			c0-0.499,0.411-0.909,0.909-0.909c0.5,0,0.896,0.41,0.896,0.909v10.865h10.865c0.499,0,0.909,0.396,0.909,0.896
			c0,0.499-0.41,0.908-0.909,0.908H53.712v10.866c0,0.499-0.396,0.908-0.896,0.908c-0.499,0-0.909-0.41-0.909-0.908V53.719H41.042z"
			/>
	</g>
</g>
</svg>
