<?xml version="1.0" encoding="utf-8"?>
<!-- Generator: Adobe Illustrator 16.0.0, SVG Export Plug-In . SVG Version: 6.00 Build 0)  -->
<!DOCTYPE svg PUBLIC "-//W3C//DTD SVG 1.1//EN" "http://www.w3.org/Graphics/SVG/1.1/DTD/svg11.dtd">
<svg version="1.1" id="MAIN-GROUP" xmlns="http://www.w3.org/2000/svg" xmlns:xlink="http://www.w3.org/1999/xlink" x="0px" y="0px"
	 width="32.96px" height="32.344px" viewBox="0 0 32.96 32.344" enable-background="new 0 0 32.96 32.344" xml:space="preserve">
<g>
	<g>
		<path fill="#050707" d="M31.787,30.051H1.174c-0.643,0-1.146,0.532-1.146,1.147c0,0.612,0.531,1.146,1.146,1.146h30.641
			c0.646,0,1.146-0.531,1.146-1.146C32.958,30.583,32.43,30.051,31.787,30.051z"/>
		<path fill="#050707" d="M0.029,19.895L0,25.352c0,0.31,0.111,0.614,0.336,0.84c0.226,0.226,0.504,0.336,0.813,0.336L6.577,26.5
			c0.307,0,0.588-0.111,0.813-0.336L26.132,7.415c0.447-0.448,0.447-1.176,0-1.651l-5.37-5.428c-0.447-0.447-1.177-0.447-1.65,0
			l-3.75,3.777L0.365,19.083C0.167,19.307,0.029,19.587,0.029,19.895L0.029,19.895z M19.951,2.797l3.776,3.777L21.6,8.702
			l-3.776-3.778L19.951,2.797z M2.351,20.396L16.172,6.575l3.775,3.775L6.127,24.146L2.32,24.174L2.351,20.396L2.351,20.396z"/>
	</g>
</g>
</svg>
