<?xml version="1.0" encoding="utf-8"?>
<!-- Generator: Adobe Illustrator 16.0.3, SVG Export Plug-In . SVG Version: 6.00 Build 0)  -->
<!DOCTYPE svg PUBLIC "-//W3C//DTD SVG 1.1//EN" "http://www.w3.org/Graphics/SVG/1.1/DTD/svg11.dtd">
<svg version="1.1" id="Layer_1" xmlns="http://www.w3.org/2000/svg" xmlns:xlink="http://www.w3.org/1999/xlink" x="0px" y="0px"
	 width="206.833px" height="36.475px" viewBox="58.926 -46.135 206.833 36.475"
	 enable-background="new 58.926 -46.135 206.833 36.475" xml:space="preserve">
<path fill="#FFFFFF" d="M104.47-46.093c0,2.961,0,5.325,0,8.382c-8.829,0-17.472,0-26.118,0.003c-1.45,0-2.906,0.094-4.35-0.02
	c-3.413-0.271-4.882,1.034-3.678,5.105c11.115,0,22.455,0,34.066,0c0,3.104,0,5.62,0,8.723c-11.238,0-22.564,0-34.191,0
	c0,2.084,0,3.583,0,5.41c25.373,0,50.574,0,76.23,0c0.118-1.538,0.24-3.05,0.412-5.185c-8.532,0-16.695,0.036-24.865-0.015
	c-5.106-0.032-9.403-2.856-10.601-6.805c-1.62-5.341,0.012-11.01,4.252-13.813c1.396-0.921,3.209-1.711,4.839-1.715
	c29.955-0.083,59.916-0.028,89.871,0.007c0.296,0,0.59,0.185,1.184,0.386c0,2.384,0,4.869,0,7.874c-11.315,0-22.534,0-34.089,0
	c0,2.184,0,3.852,0,5.963c11.197,0,22.411,0,34.006,0c0,2.738,0,5.058,0,7.95c-11.139,0-22.482,0-34.081,0c0,2.077,0,3.591,0,5.393
	c13.59,0,27.029,0,40.991,0c0-4.477,0-8.756,0-13.472c11.415,0,22.322,0,33.576,0c0-2.128,0-3.799,0-6.07c-10.979,0-22,0-33.265,0
	c0-2.906,0-5.227,0-8.023c12.226,0,24.268-0.354,36.276,0.15c6.051,0.251,9.527,5.754,7.926,13.475
	c-1.231,5.931,0.7,11.001,1.551,16.426c0.286,1.86,0.83,3.681,1.345,5.926c-3.444,0-6.584,0-10.368,0
	c-0.688-3.119-1.663-6.458-2.108-9.868c-0.354-2.738-1.274-3.918-4.221-3.823c-6.56,0.196-13.136,0.058-20.241,0.058
	c0,4.728,0,9,0,13.457c-1.412,0.232-2.32,0.507-3.236,0.507c-16.43,0.022-32.854,0.09-49.284-0.021
	c-6.984-0.047-10.446-3.823-10.497-10.95c-0.035-4.511,0.18-9.034-0.149-13.519c-0.086-1.219-1.728-3.308-2.685-3.324
	c-13.486-0.224-26.98-0.149-40.752-0.149c0,2.164,0,3.843,0,6.077c7.95,0,15.793-0.012,23.643,0.003
	c7.65,0.021,11.293,3.426,11.325,10.539c0.03,7.528-3.611,11.336-11.168,11.347c-25.283,0.054-50.574,0.058-75.861-0.004
	C62.698-9.722,58.989-13.6,58.958-21.053c-0.016-4.834-0.074-9.669,0.02-14.503c0.123-6.289,4.39-10.49,10.69-10.518
	C81.087-46.129,92.505-46.093,104.47-46.093z"/>
</svg>
