<?xml version="1.0" encoding="utf-8"?>
<!-- Generator: Adobe Illustrator 16.0.0, SVG Export Plug-In . SVG Version: 6.00 Build 0)  -->
<!DOCTYPE svg PUBLIC "-//W3C//DTD SVG 1.1//EN" "http://www.w3.org/Graphics/SVG/1.1/DTD/svg11.dtd">
<svg version="1.1" xmlns="http://www.w3.org/2000/svg" xmlns:xlink="http://www.w3.org/1999/xlink" x="0px" y="0px"
	 width="562.52px" height="562.52px" viewBox="0 0 562.52 562.52" enable-background="new 0 0 562.52 562.52" xml:space="preserve">
<g id="Layer_3">
	<g>
		<g id="Insert_Finger_6_">
			<defs>
				<circle id="SVGID_1_" cx="281.26" cy="281.26" r="281.26"/>
			</defs>
			<clipPath id="SVGID_2_">
				<use xlink:href="#SVGID_1_"  overflow="visible"/>
			</clipPath>
			<g clip-path="url(#SVGID_2_)">
				<path fill="#E32127" stroke="#F2F2F2" stroke-width="24" stroke-miterlimit="10" d="M281.266,6.316
					C129.375,6.316,6.247,129.435,6.247,281.333c0,151.876,123.126,275.003,275.019,275.003
					c151.879,0,275.006-123.127,275.006-275.003C556.271,129.434,433.145,6.316,281.266,6.316z"/>
				
					<line fill="#E32127" stroke="#F2F2F2" stroke-width="24" stroke-miterlimit="10" x1="95.481" y1="78.555" x2="486.841" y2="471.404"/>
			</g>
			<g id="Finger" clip-path="url(#SVGID_2_)">
				
					<path fill="none" stroke="#FFFFFF" stroke-width="13.1841" stroke-linecap="round" stroke-linejoin="round" stroke-miterlimit="10" d="
					M270.574,265.031l120.54,32.646c0,0,35.785,19.462,26.996,48.969c-8.789,29.508-41.435,24.485-46.457,23.857
					c-5.023-0.628-41.436-6.278-75.967-26.369c-8.16-6.278-28.25-18.128-30.134-26.015"/>
				
					<path fill="none" stroke="#FFFFFF" stroke-width="13.1841" stroke-linecap="round" stroke-linejoin="round" stroke-miterlimit="10" d="
					M146.201,265.031l-30.696-21.973c0,0-10.672,51.559-24.485,75.063c20.091,2.157,44.576,0,44.576,0"/>
				
					<path fill="none" stroke="#FFFFFF" stroke-width="13.1841" stroke-linecap="round" stroke-linejoin="round" stroke-miterlimit="10" d="
					M136.38,254.907c0,0,39.081-56.267,96.761-37.433c57.68,18.834,23.307,158.151,2.591,145.909
					c-20.719-12.242-36.022-21.603-38.846-88.699"/>
				
					<path fill="none" stroke="#FFFFFF" stroke-width="13.1841" stroke-linecap="round" stroke-linejoin="round" stroke-miterlimit="10" d="
					M120.841,323.104c0,0,4.395,42.377,32.333,49.91"/>
				
					<path fill="none" stroke="#FFFFFF" stroke-width="13.1841" stroke-linecap="round" stroke-linejoin="round" stroke-miterlimit="10" d="
					M176.718,332.521c0,0-36.415,0-17.581,51.48c4.709,13.499,38.299,57.759,57.133,19.777"/>
				
					<path fill="none" stroke="#FFFFFF" stroke-width="13.1841" stroke-linecap="round" stroke-linejoin="round" stroke-miterlimit="10" d="
					M196.807,312.746c0,0-41.75,15.538-7.534,58.464c5.963,9.338,53.626,58.39,61.84,10.281"/>
				
					<path fill="none" stroke="#FFFFFF" stroke-width="13.1841" stroke-linecap="round" stroke-linejoin="round" stroke-miterlimit="10" d="
					M230.708,361.714c0,0,50.853,46.145,57.446-13.654"/>
			</g>
		</g>
	</g>
</g>
<g id="Status_bar">
</g>
<g id="Guides">
</g>
</svg>
