<?xml version="1.0" encoding="utf-8"?>
<!-- Generator: Adobe Illustrator 16.0.0, SVG Export Plug-In . SVG Version: 6.00 Build 0)  -->
<!DOCTYPE svg PUBLIC "-//W3C//DTD SVG 1.1//EN" "http://www.w3.org/Graphics/SVG/1.1/DTD/svg11.dtd">
<svg version="1.1" xmlns="http://www.w3.org/2000/svg" xmlns:xlink="http://www.w3.org/1999/xlink" x="0px" y="0px"
	 width="323.484px" height="323.438px" viewBox="0 0 323.484 323.438" enable-background="new 0 0 323.484 323.438"
	 xml:space="preserve">
<g id="Layer_3">
	<g>
		<g id="Guide">
			<circle fill="#F58A82" cx="161.742" cy="161.913" r="161.525"/>
			<g id="Compass">
				<path fill="#FFFFFF" d="M206.617,100.832c-8.119-5.93-17.213-10.14-27.025-12.51c-19.25-4.653-39.258-1.691-56.34,8.339
					c-17.512,10.282-29.969,26.766-35.084,46.416c-5.111,19.652-2.264,40.118,8.02,57.631
					c10.279,17.509,26.764,29.968,46.414,35.081c19.654,5.111,40.119,2.267,57.633-8.015c17.51-10.282,29.969-26.769,35.08-46.421
					c5.111-19.65,2.266-40.116-8.016-57.627C221.986,114.68,215.025,106.977,206.617,100.832z M191.771,213.36
					c-28.199,16.558-64.615,7.086-81.174-21.115c-16.559-28.202-7.084-64.615,21.117-81.17c13.324-7.828,28.936-10.136,43.951-6.509
					c15.783,3.814,29.002,13.625,37.219,27.623C229.443,160.391,219.971,196.805,191.771,213.36z"/>
				<path fill="#FFFFFF" d="M146.201,127.742c-4.543-3.328-7.686-1.48-6.99,4.105L143,162.322
					c0.693,5.588,4.975,12.879,9.518,16.211l24.766,18.156c4.539,3.327,7.684,1.482,6.988-4.104l-3.789-30.475
					c-0.693-5.587-4.977-12.883-9.516-16.209L146.201,127.742z M165.348,168.357c-3.393,1.993-7.754,0.857-9.746-2.535
					c-1.992-3.389-0.857-7.754,2.537-9.744c3.389-1.992,7.754-0.856,9.744,2.534C169.875,162.005,168.738,166.368,165.348,168.357z"
					/>
			</g>
		</g>
	</g>
</g>
<g id="Status_bar">
</g>
<g id="Guides">
</g>
</svg>
