<?xml version="1.0" encoding="utf-8"?>
<!-- Generator: Adobe Illustrator 16.0.0, SVG Export Plug-In . SVG Version: 6.00 Build 0)  -->
<!DOCTYPE svg PUBLIC "-//W3C//DTD SVG 1.1//EN" "http://www.w3.org/Graphics/SVG/1.1/DTD/svg11.dtd">
<svg version="1.1" xmlns="http://www.w3.org/2000/svg" xmlns:xlink="http://www.w3.org/1999/xlink" x="0px" y="0px"
	 width="56.032px" height="83.109px" viewBox="0 0 56.032 83.109" enable-background="new 0 0 56.032 83.109" xml:space="preserve">
<g id="Layer_3">
	<g>
		<g id="Profile">
			<g>
				<path fill="#4F77BB" d="M40.194,19.452c5.366,0,9.734-4.367,9.734-9.733S45.561,0,40.194,0c-5.364,0-9.717,4.368-9.717,9.719
					C30.478,15.085,34.83,19.452,40.194,19.452z M40.194,4.615c2.816,0,5.105,2.29,5.105,5.104c0,2.813-2.289,5.104-5.105,5.104
					c-2.813,0-5.104-2.29-5.104-5.104C35.091,6.905,37.382,4.615,40.194,4.615z"/>
				<path fill="#4F77BB" d="M48.278,21.726h-2.7c-0.932,0-1.783,0.573-2.145,1.424l-3.239,7.886l-3.255-7.886
					c-0.359-0.867-1.192-1.424-2.127-1.424h-2.7c-4.285,0-7.753,3.485-7.753,7.755v27.534c0,1.276,1.031,2.306,2.307,2.306h1.294
					v21.464c0,1.277,1.028,2.307,2.305,2.307h19.878c1.277,0,2.307-1.03,2.307-2.307V59.336h1.275c1.276,0,2.308-1.03,2.308-2.304
					V29.498C56.048,25.211,52.563,21.726,48.278,21.726z M47.835,78.493h-5.316v-10.73c0-1.275-1.03-2.307-2.307-2.307
					c-1.278,0-2.305,1.032-2.305,2.307v10.73h-5.32V59.336h15.265v19.157H47.835z M51.42,54.724H28.973V29.498
					c0-1.735,1.405-3.143,3.14-3.143h1.164l4.791,11.65c0.788,1.832,3.453,1.961,4.27,0l4.796-11.633h1.161
					c1.734,0,3.14,1.408,3.14,3.142v25.21H51.42z"/>
				<path fill="#4F77BB" d="M14.608,4.615c1.275,0,2.307-1.032,2.307-2.308C16.915,1.031,15.868,0,14.608,0H2.308
					C1.03,0,0,1.031,0,2.307v78.494c0,1.278,1.03,2.309,2.308,2.309h12.301c1.275,0,2.307-1.031,2.307-2.309
					c0-1.275-1.031-2.308-2.307-2.308H4.629v-6.478h9.979c1.275,0,2.307-1.031,2.307-2.307c0-1.276-1.031-2.307-2.307-2.307H4.629
					v-6.791h4.76c1.275,0,2.309-1.029,2.309-2.306c0-1.274-1.033-2.307-2.309-2.307h-4.76v-6.428h9.979
					c1.275,0,2.307-1.031,2.307-2.307c0-1.277-1.031-2.307-2.307-2.307H4.629v-6.79h4.76c1.275,0,2.309-1.031,2.309-2.305
					c0-1.278-1.033-2.31-2.309-2.31h-4.76v-6.412h9.979c1.275,0,2.307-1.03,2.307-2.307s-1.031-2.307-2.307-2.307H4.629v-6.805h4.76
					c1.275,0,2.309-1.031,2.309-2.307c0-1.277-1.033-2.307-2.309-2.307h-4.76V4.615H14.608z"/>
			</g>
		</g>
	</g>
</g>
<g id="Status_bar">
</g>
<g id="Guides">
</g>
</svg>
