<?xml version="1.0" encoding="utf-8"?>
<!-- Generator: Adobe Illustrator 16.0.0, SVG Export Plug-In . SVG Version: 6.00 Build 0)  -->
<!DOCTYPE svg PUBLIC "-//W3C//DTD SVG 1.1//EN" "http://www.w3.org/Graphics/SVG/1.1/DTD/svg11.dtd">
<svg version="1.1" id="Layer_1" xmlns="http://www.w3.org/2000/svg" xmlns:xlink="http://www.w3.org/1999/xlink" x="0px" y="0px"
	 width="67.258px" height="55.406px" viewBox="0 0 67.258 55.406" enable-background="new 0 0 67.258 55.406" xml:space="preserve">
<g id="_x37_.1_4_">
	<path fill="#DBB362" d="M29.873,14.263L29.873,14.263c0.962,0,2.273,0.212,3.059,1.221c1.588,2.044-0.016,6.062-3.504,8.772
		c-2.005,1.56-4.305,2.452-6.309,2.452c-0.963,0-2.275-0.211-3.059-1.219c-0.953-1.228-0.571-2.924-0.259-3.826
		c0.617-1.785,1.953-3.541,3.762-4.948C25.568,15.157,27.868,14.263,29.873,14.263L29.873,14.263z M29.872,12.757
		c-2.243,0-4.884,0.942-7.232,2.769c-4.211,3.274-5.899,8.148-3.769,10.889c0.941,1.212,2.47,1.802,4.248,1.802
		c2.243,0,4.883-0.942,7.232-2.77c4.212-3.272,5.899-8.147,3.77-10.889C33.18,13.348,31.649,12.757,29.872,12.757L29.872,12.757z
		 M21.418,23.969c1.978-0.166,4.083-1.047,5.929-2.482c1.533-1.191,2.737-2.644,3.482-4.198c0.09-0.188,0.011-0.413-0.177-0.503
		c-0.188-0.09-0.413-0.011-0.503,0.177c-0.694,1.451-1.823,2.808-3.265,3.929c-1.732,1.348-3.696,2.175-5.529,2.329
		c-0.208,0.017-0.362,0.199-0.344,0.405c0.016,0.197,0.181,0.346,0.375,0.346C21.397,23.971,21.407,23.97,21.418,23.969
		L21.418,23.969z M25.368,31.24L25.368,31.24c1.804,0,3.94,0.942,5.715,2.521c2.822,2.513,4.028,6.143,2.582,7.771
		c-0.634,0.711-1.602,0.859-2.304,0.859c-1.804,0-3.939-0.941-5.715-2.521c-1.478-1.317-2.572-2.971-3.001-4.54
		c-0.216-0.788-0.448-2.256,0.421-3.23C23.698,31.39,24.668,31.24,25.368,31.24L25.368,31.24z M25.368,29.732
		c-1.391,0-2.608,0.444-3.429,1.366c-2.054,2.308-0.844,6.739,2.707,9.898c2.13,1.896,4.622,2.901,6.715,2.901
		c1.393,0,2.609-0.444,3.429-1.364c2.055-2.31,0.843-6.741-2.704-9.898C29.952,30.738,27.462,29.732,25.368,29.732L25.368,29.732z
		 M32.318,39.868c0.055-0.201-0.064-0.408-0.266-0.462c-1.377-0.373-2.742-1.14-3.952-2.215c-1.453-1.293-2.491-2.873-2.921-4.444
		c-0.055-0.201-0.261-0.318-0.462-0.265c-0.201,0.056-0.319,0.262-0.265,0.464c0.468,1.71,1.584,3.419,3.146,4.808
		c1.296,1.154,2.769,1.976,4.257,2.379c0.032,0.009,0.065,0.014,0.099,0.014C32.12,40.146,32.273,40.036,32.318,39.868
		L32.318,39.868z M42.532,15.636c2.271,0,4.325,3.302,4.483,7.213c0.084,2.058-0.364,4.071-1.229,5.525
		c-0.438,0.735-1.377,1.979-2.749,2.034c-0.032,0.002-0.063,0.003-0.095,0.003c-2.272,0-4.325-3.304-4.484-7.214
		c-0.083-2.058,0.364-4.072,1.228-5.525c0.438-0.736,1.376-1.979,2.752-2.034C42.47,15.636,42.502,15.636,42.532,15.636
		L42.532,15.636z M42.532,14.128c-0.052,0-0.104,0.002-0.155,0.004c-3.196,0.129-5.623,4.216-5.424,9.126
		c0.196,4.833,2.86,8.66,5.99,8.66c0.051,0,0.104-0.001,0.155-0.003c3.194-0.13,5.622-4.216,5.422-9.126
		C48.326,17.958,45.66,14.128,42.532,14.128L42.532,14.128z M42.656,28.709c0.937-1.575,1.403-3.633,1.315-5.789
		c-0.072-1.793-0.517-3.479-1.285-4.872c-0.102-0.183-0.33-0.25-0.512-0.148c-0.183,0.101-0.249,0.33-0.148,0.512
		c0.713,1.292,1.125,2.862,1.193,4.539c0.082,2.013-0.349,3.922-1.211,5.375c-0.106,0.178-0.048,0.409,0.131,0.516
		c0.062,0.036,0.127,0.053,0.192,0.053C42.461,28.894,42.586,28.828,42.656,28.709L42.656,28.709z M45.547,33.94L45.547,33.94
		c1.263,0,2.243,0.465,2.558,1.214c0.325,0.78-0.11,1.612-0.401,2.04c-0.567,0.835-1.502,1.557-2.632,2.03
		c-0.819,0.344-1.673,0.526-2.471,0.526c-1.264,0-2.243-0.465-2.558-1.214c-0.541-1.289,0.847-3.153,3.032-4.071
		C43.894,34.123,44.749,33.94,45.547,33.94L45.547,33.94z M45.547,33.187c-0.868,0-1.822,0.189-2.763,0.585
		c-2.61,1.095-4.147,3.359-3.436,5.058c0.455,1.084,1.718,1.676,3.252,1.676c0.866,0,1.82-0.19,2.763-0.585
		c2.61-1.095,4.146-3.359,3.435-5.058C48.344,33.778,47.081,33.187,45.547,33.187L45.547,33.187z M44.418,37.647
		c0.885-0.37,1.639-0.931,2.182-1.62c0.129-0.164,0.1-0.4-0.063-0.529c-0.164-0.129-0.4-0.1-0.529,0.063
		c-0.464,0.59-1.113,1.071-1.881,1.393c-0.919,0.388-1.889,0.491-2.731,0.295c-0.203-0.046-0.406,0.078-0.453,0.281
		c-0.048,0.202,0.078,0.403,0.281,0.451c0.333,0.078,0.683,0.117,1.039,0.117C42.971,38.098,43.71,37.944,44.418,37.647
		L44.418,37.647z"/>
	<path fill="none" stroke="#D8D9D8" stroke-width="0.8889" stroke-miterlimit="10" d="M66.813,53.776
		c0,0.655-0.53,1.186-1.186,1.186H1.629c-0.654,0-1.185-0.53-1.185-1.186V1.629c0-0.654,0.53-1.185,1.185-1.185h63.999
		c0.655,0,1.186,0.531,1.186,1.185V53.776z"/>
</g>
</svg>
