<svg xmlns="http://www.w3.org/2000/svg" width="441.45" height="441.52" viewBox="0 0 441.45 441.52"><defs><style>.cls-1{fill:#182a88;fill-rule:evenodd;}.cls-2{fill:#fff;}.cls-3{fill:#fff100;}</style></defs><title>Asset 1</title><g id="Layer_2" data-name="Layer 2"><g id="Layer_1-2" data-name="Layer 1"><path class="cls-1" d="M220.76,0C342.62,0,441.45,98.83,441.45,220.76S342.62,441.52,220.76,441.52,0,342.68,0,220.76,98.83,0,220.76,0"/><path class="cls-2" d="M280,251.32a171.82,171.82,0,0,1-29.63,9,143.64,143.64,0,0,1-29.16,3q-20.32,0-35.5-5.47a90,90,0,0,1-29.5-18.22c-.87,0-2.47.07-4.54.2-7.47.47-12.61.67-15.42.67q-42,0-69.14-17.75-26.93-17.82-27-45,0-21.52,16.62-40.84t46.71-32a209.67,209.67,0,0,1,31-10.48c10.68-2.8,18.82-4.2,24.09-4.2a8.49,8.49,0,0,1,3.67,1.13c1.13.6,1.67,1.27,1.67,1.93,0,1.47-4.54,3.54-13.75,6.21a136.34,136.34,0,0,0-25.43,10,128.66,128.66,0,0,0-44,36.31c-12.21,15.48-18.29,29.76-18.29,42.71,0,13.75,6.61,24.89,19.82,33.57s30.16,13,51,13c2.6,0,5.47-.07,8.34-.33s6.21-.53,9.74-.93a86.06,86.06,0,0,1-7.81-18.62A58.63,58.63,0,0,1,141,198.47q0-24,16.55-44.85c10.94-13.81,27.16-26.29,48.45-37.11A318.81,318.81,0,0,1,262.07,94q28.13-8.31,48.52-8.27c14.08,0,25.36,2.8,34,8.61S357.5,107.58,357.5,117q0,16.62-20.62,39.51t-56.33,44.38a287.9,287.9,0,0,1-51.85,24.89,249.68,249.68,0,0,1-52.25,12.75c2.47,5.81,7.61,10.28,15.55,13.48s18,4.81,30.23,4.81a155.06,155.06,0,0,0,41.38-5.61c13.55-3.67,28.56-9.81,44.91-18.22,5.47-2.8,12.35-6.54,20.76-11.15,11.15-6.07,17.89-9.14,20-9.14a22.78,22.78,0,0,1,2.8.07c.33.07.47.33.67.73a10.38,10.38,0,0,1-2.34,2.27c-9.48,7.41-16.82,18.15-22.09,32.1-1.27,3-3.14,7.47-5.4,13.61-9.54,26.29-20.82,45.11-33.5,56.53-11.75,10.08-27.36,18-46.92,23.56s-41.58,8.34-66,8.34c-31.1,0-55.46-4.34-73.21-12.81s-26.63-20.22-26.63-35c0-9.61,4.2-17.62,12.68-24.09s18.69-9.61,31-9.61c9.21,0,16.55,1.87,22.22,5.61s8.34,8.48,8.34,14.28a16.49,16.49,0,0,1-7,13.88c-4.74,3.34-12.55,6-23.56,7.88q-9.81,1.9-13.81,4.6a8.63,8.63,0,0,0-4,7.41c0,5.41,5.54,10.21,16.75,14.35s24.89,6.21,41,6.21q30.13,0,55.72-18.75T280,251.32M175.38,232.17a244.86,244.86,0,0,0,58.79-16.62,279.53,279.53,0,0,0,56.72-32.17q26.43-18.52,42-37.57c10.48-12.68,15.75-23.09,15.75-31.1,0-6.67-2.47-12.21-7.47-16.22S329.54,92.43,321,92.43c-11.21,0-25,4.74-41.38,14.41s-33,22.82-49.65,39.58c-16.15,16.42-28.83,31.63-37.77,45.85q-13.71,21.22-16.82,39.91"/><path class="cls-3" d="M331.94,270.21c3.67-10.68,15.88-19.69,26.16-24.36,23.42-10.68,42.71-8.61,45.38-7.94.27.07.47.4.67.8a11.88,11.88,0,0,1-2.4,2.2c-9.41,7.41-16.82,18.15-22.09,32.1-1.27,3-3.07,7.54-5.34,13.61-9.54,26.29-20.76,45.24-33.57,56.52-11.61,10.21-26.56,17.82-46.11,23.36-50.32,14.28-148.22-10.41-76.48-8.68,20.09.47,54.12-9.14,71.21-21.62s27.43-22,42.58-66"/></g></g></svg>