<?xml version="1.0" encoding="utf-8"?>
<!-- Generator: Adobe Illustrator 16.0.0, SVG Export Plug-In . SVG Version: 6.00 Build 0)  -->
<!DOCTYPE svg PUBLIC "-//W3C//DTD SVG 1.1//EN" "http://www.w3.org/Graphics/SVG/1.1/DTD/svg11.dtd">
<svg version="1.1" xmlns="http://www.w3.org/2000/svg" xmlns:xlink="http://www.w3.org/1999/xlink" x="0px" y="0px"
	 width="215.875px" height="215.859px" viewBox="0 0 215.875 215.859" enable-background="new 0 0 215.875 215.859"
	 xml:space="preserve">
<g id="Layer_3">
	<g>
		<circle fill="#F8BB63" cx="107.923" cy="107.922" r="107.847"/>
		<path fill="#FFFFFF" d="M151.103,64.745c-11.533-11.535-26.868-17.888-43.179-17.888c-16.313,0-31.646,6.353-43.181,17.888
			C53.21,76.276,46.857,91.611,46.857,107.922c0,16.313,6.353,31.648,17.886,43.179c11.535,11.535,26.868,17.888,43.181,17.888
			c16.311,0,31.646-6.353,43.179-17.888c11.533-11.53,17.886-26.866,17.886-43.179C168.988,91.611,162.636,76.276,151.103,64.745z
			 M163.632,107.922c0,14.397-5.489,27.537-14.486,37.435l-10.121-10.118c1.146-1.871,1.809-4.069,1.809-6.419v-2.296
			c0-1.479-1.198-2.679-2.68-2.679h-0.303v-6.575h0.303c1.481,0,2.68-1.201,2.68-2.681v-4.13c0-5.778-4.702-10.479-10.48-10.479
			h-17.331l1.553-20.386c0.056-0.745-0.198-1.476-0.707-2.025c-0.507-0.545-1.219-0.857-1.964-0.857h-8.426l0.71-8.521l11.452,1.906
			c1.459,0.244,2.839-0.738,3.08-2.199c0.244-1.459-0.741-2.837-2.199-3.081l-14.32-2.387c-0.739-0.123-1.495,0.066-2.084,0.526
			c-0.591,0.462-0.961,1.146-1.023,1.892l-0.989,11.864H80.499l-10.01-10.01c9.897-8.998,23.036-14.486,37.435-14.486
			C138.642,52.215,163.632,77.206,163.632,107.922z M93.408,123.845c-1.48,0-2.679,1.199-2.679,2.679v1.496h-4.056l-3.098-40.656
			l13.479,13.478c-3.718,1.613-6.325,5.316-6.325,9.618v4.132c0,1.478,1.198,2.679,2.679,2.679h0.305v6.575H93.408L93.408,123.845z
			 M109.014,82.068l-1.364,17.911h-3.882L85.856,82.068H109.014z M127.632,123.845l-6.575-6.575h11.437v6.575H127.632z
			 M101.211,105.337h0.338l6.576,6.575H96.087v-1.453C96.087,107.635,98.385,105.337,101.211,105.337z M113.481,117.27l6.576,6.575
			H99.069v-6.575H113.481z M135.476,111.912h-19.776l-6.575-6.575h21.229c2.825,0,5.123,2.298,5.123,5.122V111.912z M125.413,129.2
			l5.962,5.963c-0.872,0.394-1.838,0.612-2.855,0.612h-25.477c-3.709,0-6.748-2.916-6.945-6.575H125.413z M132.988,129.2h2.479
			c-0.039,0.718-0.189,1.405-0.43,2.05L132.988,129.2z M52.215,107.922c0-14.396,5.489-27.537,14.486-37.433l11.06,11.059
			l3.761,49.354c0.105,1.397,1.271,2.476,2.67,2.476h7.415c1.816,4.539,6.256,7.755,11.437,7.755h25.477
			c2.506,0,4.837-0.756,6.783-2.044l10.056,10.056c-9.898,8.998-23.037,14.486-37.435,14.486
			C77.206,163.631,52.215,138.64,52.215,107.922z"/>
	</g>
</g>
<g id="Status_bar">
</g>
<g id="Guides">
</g>
</svg>
