<?xml version="1.0" encoding="utf-8"?>
<!-- Generator: Adobe Illustrator 16.0.0, SVG Export Plug-In . SVG Version: 6.00 Build 0)  -->
<!DOCTYPE svg PUBLIC "-//W3C//DTD SVG 1.1//EN" "http://www.w3.org/Graphics/SVG/1.1/DTD/svg11.dtd">
<svg version="1.1" xmlns="http://www.w3.org/2000/svg" xmlns:xlink="http://www.w3.org/1999/xlink" x="0px" y="0px"
	 width="68.964px" height="68.966px" viewBox="0 0 68.964 68.966" enable-background="new 0 0 68.964 68.966" xml:space="preserve">
<g id="Layer_3">
	<g>
		<g id="Table">
			<g id="Icons">
				<path fill="#4C4C4E" d="M58.865,10.101C52.352,3.588,43.693,0,34.482,0c-9.21,0-17.87,3.588-24.382,10.101
					C3.585,16.614,0,25.273,0,34.482c0,9.211,3.585,17.87,10.101,24.382c6.512,6.514,15.172,10.102,24.382,10.102
					c9.211,0,17.869-3.588,24.383-10.102c6.513-6.512,10.099-15.171,10.099-24.382C68.964,25.273,65.378,16.614,58.865,10.101z
					 M65.939,34.482c0,8.131-3.102,15.55-8.179,21.137l-5.717-5.712c0.647-1.056,1.021-2.297,1.021-3.625v-1.295
					c0-0.836-0.676-1.515-1.511-1.515h-0.174V39.76h0.174c0.835,0,1.511-0.679,1.511-1.512v-2.331c0-3.265-2.654-5.92-5.919-5.92
					h-9.784l0.878-11.514c0.028-0.417-0.11-0.832-0.403-1.142c-0.285-0.308-0.687-0.483-1.109-0.483h-4.756l0.401-4.813l6.469,1.077
					c0.821,0.138,1.601-0.419,1.735-1.242c0.14-0.822-0.416-1.6-1.239-1.74l-8.086-1.348c-0.416-0.07-0.844,0.038-1.178,0.298
					c-0.332,0.264-0.544,0.647-0.58,1.067l-0.555,6.7h-9.943l-5.652-5.651c5.59-5.081,13.008-8.182,21.139-8.182
					C51.829,3.025,65.939,17.136,65.939,34.482z M26.286,43.473c-0.835,0-1.515,0.679-1.515,1.515v0.844h-2.289l-1.751-22.96
					l7.615,7.612c-2.103,0.913-3.575,3.002-3.575,5.434v2.332c0,0.832,0.68,1.511,1.515,1.511h0.173v3.713H26.286L26.286,43.473z
					 M35.098,19.885l-0.771,10.112h-2.19L22.021,19.885H35.098z M45.61,43.473l-3.714-3.713h6.46v3.713H45.61z M30.692,33.022h0.188
					l3.716,3.712h-6.799v-0.817C27.797,34.319,29.096,33.022,30.692,33.022z M37.619,39.76l3.715,3.713H29.482V39.76H37.619z
					 M50.041,36.734H38.875l-3.715-3.712h11.986c1.594,0,2.895,1.297,2.895,2.895V36.734z M44.358,46.497l3.367,3.367
					c-0.493,0.225-1.038,0.346-1.613,0.346H31.727c-2.094,0-3.812-1.646-3.924-3.713H44.358z M48.635,46.497h1.4
					c-0.021,0.406-0.105,0.795-0.24,1.157L48.635,46.497z M3.025,34.482c0-8.13,3.102-15.547,8.181-21.136l6.246,6.24l2.123,27.872
					c0.058,0.787,0.717,1.396,1.506,1.396h4.188c1.025,2.564,3.532,4.38,6.458,4.38h14.386c1.415,0,2.732-0.427,3.828-1.154
					l5.683,5.68c-5.592,5.081-13.012,8.18-21.141,8.18C17.139,65.94,3.025,51.83,3.025,34.482z"/>
			</g>
		</g>
	</g>
</g>
<g id="Status_bar">
	<rect x="-1173.526" y="-0.042" display="none" width="1242.49" height="60"/>
	<rect x="-1173.526" y="59.958" display="none" fill="#D1D3D4" width="1242.49" height="132"/>
	<g display="none">
	</g>
</g>
<g id="Guides">
</g>
</svg>
