<?xml version="1.0" encoding="utf-8"?>
<!-- Generator: Adobe Illustrator 16.0.0, SVG Export Plug-In . SVG Version: 6.00 Build 0)  -->
<!DOCTYPE svg PUBLIC "-//W3C//DTD SVG 1.1//EN" "http://www.w3.org/Graphics/SVG/1.1/DTD/svg11.dtd">
<svg version="1.1" xmlns="http://www.w3.org/2000/svg" xmlns:xlink="http://www.w3.org/1999/xlink" x="0px" y="0px"
	 width="261.05px" height="215.048px" viewBox="0 0 261.05 215.048" enable-background="new 0 0 261.05 215.048"
	 xml:space="preserve">
<g id="Layer_3">
	<g>
		<g id="_x37_.1_10_">
			<g id="_x37_.1_11_">
				<path fill="none" stroke="#D8D9D8" stroke-width="3.45" stroke-miterlimit="10" d="M259.325,208.725
					c0,2.54-2.06,4.599-4.6,4.599H6.325c-2.541,0-4.6-2.059-4.6-4.599V6.324c0-2.54,2.059-4.6,4.6-4.6h248.399
					c2.54,0,4.6,2.06,4.6,4.6V208.725z"/>
			</g>
			<path fill="#5EB287" d="M174.774,111.166V82.982c0-15.677-12.753-28.432-28.431-28.432h-14.058v-4.215h6.828
				c4.045,0,7.333-3.291,7.333-7.337c0-4.043-3.289-7.33-7.333-7.33h-6.828v-2.11c0-4.042-3.291-7.333-7.334-7.333
				c-4.045,0-7.334,3.291-7.334,7.333v2.11h-4.217v-2.11c0-1.442-1.167-2.611-2.612-2.611h-9.442c-1.443,0-2.612,1.169-2.612,2.611
				v18.886c0,1.442,1.169,2.612,2.612,2.612h9.442c1.445,0,2.612-1.17,2.612-2.612v-2.108h4.217v9.819
				c-13.532,3.3-23.605,15.522-23.605,30.059v70.814c0,17.059,13.88,30.938,30.939,30.938c17.059,0,30.94-13.88,30.94-30.938V90.212
				c0-14.534-10.076-26.757-23.607-30.059v-0.377h14.06c12.794,0,23.205,10.411,23.205,23.206v28.184
				c-5.574,1.202-9.762,6.167-9.762,12.095c0,6.821,5.552,12.372,12.375,12.372c6.822,0,12.372-5.551,12.372-12.372
				C184.536,117.333,180.345,112.368,174.774,111.166z M139.113,40.893c1.163,0,2.108,0.947,2.108,2.108
				c0,1.163-0.946,2.107-2.108,2.107h-6.828v-4.216H139.113z M108.176,49.831h-4.219v-13.66h4.219v2.11v9.439V49.831z
				 M113.399,45.108v-4.216h4.217v4.216H113.399z M122.842,59.272V47.721v-9.439v-4.723c0-1.16,0.946-2.108,2.109-2.108
				c1.162,0,2.106,0.948,2.106,2.108v4.723v9.439v11.552H122.842L122.842,59.272z M150.665,90.212v70.816
				c0,14.179-11.534,25.715-25.713,25.715l0,0c-14.18,0-25.713-11.536-25.713-25.715v-16.271h43.602
				c1.444,0,2.611-1.172,2.611-2.615c0-1.442-1.167-2.61-2.611-2.61H99.238v-27.824h43.602c1.444,0,2.611-1.168,2.611-2.611
				c0-1.444-1.167-2.612-2.611-2.612H99.238V90.212c0-14.178,11.534-25.715,25.713-25.715
				C139.13,64.497,150.665,76.034,150.665,90.212z M172.161,130.406c-3.942,0-7.148-3.204-7.148-7.146
				c0-3.942,3.207-7.149,7.148-7.149c3.943,0,7.147,3.207,7.147,7.149C179.309,127.202,176.104,130.406,172.161,130.406z"/>
		</g>
	</g>
</g>
<g id="Status_bar">
</g>
<g id="Guides">
</g>
</svg>
