<?xml version="1.0" encoding="utf-8"?>
<!-- Generator: Adobe Illustrator 16.0.0, SVG Export Plug-In . SVG Version: 6.00 Build 0)  -->
<!DOCTYPE svg PUBLIC "-//W3C//DTD SVG 1.1//EN" "http://www.w3.org/Graphics/SVG/1.1/DTD/svg11.dtd">
<svg version="1.1" xmlns="http://www.w3.org/2000/svg" xmlns:xlink="http://www.w3.org/1999/xlink" x="0px" y="0px"
	 width="562.533px" height="562.532px" viewBox="0 0 562.533 562.532" enable-background="new 0 0 562.533 562.532"
	 xml:space="preserve">
<g id="Layer_3">
	<g>
		<g id="Tip_1" display="none">
			<g id="Insert_Finger" display="inline">
				<defs>
					<circle id="SVGID_1_" cx="281.267" cy="281.266" r="281.267"/>
				</defs>
				<clipPath id="SVGID_2_">
					<use xlink:href="#SVGID_1_"  overflow="visible"/>
				</clipPath>
				<circle clip-path="url(#SVGID_2_)" fill="#F8BB63" cx="281.267" cy="281.266" r="281.267"/>
				
					<circle id="Outline" display="none" clip-path="url(#SVGID_2_)" fill="none" stroke="#4F77BB" stroke-width="11.2677" stroke-miterlimit="10" cx="281.267" cy="281.266" r="281.267"/>
				<g clip-path="url(#SVGID_2_)">
					<rect x="337.848" y="352.864" fill="#224095" width="18.09" height="36.178"/>
					<rect x="233.836" y="352.864" fill="#4E6EB5" width="18.089" height="36.178"/>
					<path fill="#EA6554" d="M195.343,246.645c0-26.211,21.326-47.538,47.537-47.538v-18.088c-36.244,0-65.626,29.382-65.626,65.626
						s29.382,65.626,65.626,65.626v-18.089C216.669,294.182,195.343,272.857,195.343,246.645z"/>
					<path fill="#EE264C" d="M242.88,181.019v18.088c26.213,0,47.538,21.326,47.538,47.538c0,26.213-21.325,47.537-47.538,47.537
						v18.089c36.245,0,65.627-29.382,65.627-65.626S279.125,181.019,242.88,181.019z"/>
					<path fill="#FFFFFF" d="M195.343,246.645c0,26.213,21.326,47.537,47.537,47.537v-28.964h-6.783v-12.804
						c-1.299-1.566-2.08-3.576-2.08-5.77c0-2.193,0.781-4.204,2.08-5.77v-30.138h6.783v-11.629
						C216.669,199.107,195.343,220.433,195.343,246.645z"/>
					<path fill="#7CD1E7" d="M249.664,210.736v29.741c1.511,1.616,2.442,3.78,2.442,6.167c0,2.387-0.932,4.552-2.442,6.168v12.405
						h-6.784v28.964c26.213,0,47.538-21.324,47.538-47.537c0-26.211-21.325-47.538-47.538-47.538v11.629H249.664z"/>
					<rect x="319.76" y="323.576" fill="#41C3D8" width="18.088" height="18.091"/>
					<path fill="#1598AD" d="M337.848,311.082v41.782h18.09v-41.782c-2.902,0.7-5.928,1.083-9.044,1.083
						C343.775,312.164,340.75,311.783,337.848,311.082z"/>
					<rect x="242.88" y="312.271" fill="#1598AD" width="27.134" height="40.593"/>
					<rect x="215.748" y="312.271" fill="#41C3D8" width="27.133" height="40.593"/>
					<path fill="#224095" d="M346.894,181.019v131.146c3.116,0,6.142-0.381,9.044-1.083c16.832-4.068,29.34-19.222,29.34-37.303
						v-54.375C385.277,198.205,368.091,181.019,346.894,181.019z"/>
					<path fill="#4E6EB5" d="M346.894,181.019c-21.2,0-38.386,17.187-38.386,38.385v54.375c0,18.081,12.507,33.235,29.34,37.303
						c2.902,0.701,5.928,1.083,9.046,1.083V181.019L346.894,181.019z"/>
					<path fill="#4E6EB5" d="M243.062,237.6c2.608,0,4.952,1.111,6.602,2.877v-29.741h-13.566v30.139
						C237.756,238.876,240.26,237.6,243.062,237.6z"/>
					<path fill="#4E6EB5" d="M249.664,252.813c-1.65,1.766-3.994,2.876-6.602,2.876c-2.802,0-5.306-1.274-6.964-3.274v12.804h13.566
						V252.813z"/>
					<path fill="#EA6554" d="M243.062,255.689c2.608,0,4.952-1.111,6.602-2.876c1.511-1.616,2.442-3.781,2.442-6.168
						c0-2.387-0.932-4.551-2.442-6.167c-1.65-1.767-3.994-2.877-6.602-2.877c-2.802,0-5.306,1.275-6.964,3.275
						c-1.299,1.565-2.08,3.576-2.08,5.769c0,2.194,0.781,4.204,2.08,5.77C237.756,254.415,240.26,255.689,243.062,255.689z"/>
				</g>
			</g>
		</g>
		<g id="Tip_2" display="none">
			<g id="Insert_Finger_1_" display="inline">
				<defs>
					<circle id="SVGID_3_" cx="281.267" cy="281.266" r="281.267"/>
				</defs>
				<clipPath id="SVGID_4_">
					<use xlink:href="#SVGID_3_"  overflow="visible"/>
				</clipPath>
				<circle clip-path="url(#SVGID_4_)" fill="#F58A82" cx="281.267" cy="281.266" r="281.267"/>
				
					<circle id="Outline_1_" display="none" clip-path="url(#SVGID_4_)" fill="none" stroke="#4F77BB" stroke-width="11.2677" stroke-miterlimit="10" cx="281.267" cy="281.266" r="281.267"/>
				<g clip-path="url(#SVGID_4_)">
					<path fill="none" d="M289.286,261.622c-2.561,5.329-5.12,10.024-7.878,13.867h25.575l9.474-17.464l-20.851-10.622
						C294.028,251.636,291.843,256.315,289.286,261.622z"/>
					<path fill="none" d="M193.706,331.832c0,17.122,13.931,31.051,31.051,31.051c15.674,0,28.664-11.676,30.751-26.784h-30.751
						c-1.503,0-2.896-0.792-3.666-2.085c-0.769-1.292-0.801-2.894-0.083-4.217l14.666-27.03c-3.397-1.28-7.075-1.985-10.916-1.985
						C207.636,300.781,193.706,314.71,193.706,331.832z"/>
					<path fill="none" d="M264.111,327.564h4.834c0.053-0.161,0.116-0.32,0.189-0.476c4.715-9.861,5.81-18.337,3.259-25.191
						c-2.403-6.451-8.155-11.913-17.522-16.622l-7.604,14.014C256.474,305.677,262.851,315.864,264.111,327.564z"/>
					<path fill="none" d="M243.168,306.846l-11.241,20.718h23.581C254.337,319.095,249.745,311.706,243.168,306.846z"/>
					<path fill="none" d="M339.811,335.583c-0.65,0.35-1.345,0.516-2.033,0.516c-1.514,0-2.98-0.808-3.753-2.232l-14.662-27.021
						c-7.659,5.66-12.638,14.751-12.638,24.986c0,17.121,13.928,31.05,31.05,31.05c17.123,0,31.053-13.929,31.053-31.05
						c0-17.122-13.93-31.051-31.053-31.051c-3.84,0-7.517,0.706-10.915,1.985l14.665,27.031
						C342.646,331.868,341.88,334.458,339.811,335.583z"/>
					<path fill="none" d="M280.39,298.92c2.976,7.994,2.417,17.229-1.653,27.504l0.511,0.179l23.103-42.581H272.7
						c-0.746,0.447-1.512,0.842-2.299,1.178C275.182,289.259,278.488,293.81,280.39,298.92z"/>
					<path fill="#010101" d="M224.757,362.882c-17.121,0-31.051-13.93-31.051-31.051c0-17.121,13.931-31.05,31.051-31.05
						c3.84,0,7.519,0.705,10.916,1.985l4.101-7.559c-4.632-1.907-9.704-2.961-15.017-2.961c-21.827,0-39.583,17.757-39.583,39.584
						c0,21.827,17.756,39.584,39.583,39.584c20.387,0,37.22-15.489,39.354-35.317h-8.604
						C253.421,351.207,240.43,362.882,224.757,362.882z"/>
					<path fill="#010101" d="M247.268,299.29l-4.1,7.557c6.577,4.859,11.169,12.249,12.34,20.719h8.604
						C262.851,315.864,256.474,305.677,247.268,299.29z"/>
					<path fill="#010101" d="M337.774,292.247c-5.314,0-10.384,1.054-15.017,2.961l4.102,7.559c3.396-1.28,7.075-1.985,10.915-1.985
						c17.123,0,31.051,13.929,31.051,31.05c0,17.122-13.928,31.051-31.051,31.051c-17.122,0-31.052-13.93-31.052-31.051
						c0-10.234,4.98-19.325,12.64-24.985l-4.1-7.557c-10.309,7.152-17.073,19.072-17.073,32.542
						c0,21.827,17.758,39.583,39.585,39.583c21.824,0,39.584-17.756,39.584-39.583C377.358,310.004,359.599,292.247,337.774,292.247
						z"/>
					<path fill="#E65725" d="M269.044,330.566c-0.4-0.959-0.43-2.027-0.099-3.002h-4.834h-8.604h-23.581l11.24-20.718l4.101-7.557
						l7.604-14.015c-0.706-0.354-1.43-0.706-2.177-1.052c-0.611-0.26-1.23-0.54-1.862-0.842c-1.293-0.62-2.489-1.265-3.594-1.933
						l-7.465,13.76l-4.101,7.559l-14.666,27.03c-0.717,1.323-0.686,2.925,0.083,4.217c0.769,1.293,2.164,2.085,3.667,2.085h30.751
						h8.604h16.429l-8.966-3.142C270.43,332.556,269.51,331.687,269.044,330.566z"/>
					<path fill="#E65725" d="M334.024,333.867c0.772,1.425,2.239,2.232,3.753,2.232c0.688,0,1.383-0.167,2.033-0.518
						c2.069-1.123,2.836-3.713,1.714-5.785l-14.665-27.03l-4.102-7.559l-8.384-15.453l10.458-19.278h-2.539
						c-0.69,0-1.341-0.168-1.918-0.459c-0.004-0.001-0.015-0.002-0.017-0.005l-3.902-1.987l-9.474,17.463h-25.575
						c-2.657,3.705-5.501,6.616-8.707,8.533h29.65l-23.103,42.581l8.156,2.858l22.116-40.758l5.742,10.586l4.1,7.557
						L334.024,333.867z"/>
					<path fill="#73C7AC" d="M281.595,257.922c2.681-5.567,4.919-10.35,6.365-14.413l-12.289-6.26
						c-2.1-1.069-2.935-3.638-1.865-5.738c1.07-2.101,3.638-2.937,5.739-1.866l10.153,5.171c-0.142-3.253-1.679-6.829-10.246-10.949
						c-3.99-1.922-7.191-2.857-9.786-2.857c-6.684,0-10.666,6.835-18.158,22.432c-5.748,11.934-7.562,19.389-5.881,24.18
						c1.091,3.109,3.908,5.665,8.862,8.047c0.535,0.233,1.059,0.471,1.578,0.709c2.732,1.161,5.077,1.735,7.125,1.735
						C269.373,278.114,274.705,272.265,281.595,257.922z"/>
					<path fill="#7A4E34" d="M279.749,199.329c1.997,3.849,5.372,6.692,9.507,8.004c7.13,2.262,14.684-0.675,18.562-6.678
						l-29.879-9.483C277.817,193.974,278.424,196.771,279.749,199.329z"/>
					<path fill="#010101" d="M278.737,326.424c4.07-10.274,4.629-19.51,1.653-27.504c-1.902-5.11-5.208-9.661-9.989-13.72
						c0.789-0.335,1.553-0.731,2.299-1.178c3.207-1.917,6.05-4.829,8.708-8.533c2.758-3.843,5.318-8.538,7.878-13.867
						c2.555-5.306,4.742-9.985,6.316-14.218l20.854,10.623l3.9,1.987c0.004,0.003,0.015,0.003,0.017,0.005
						c0.579,0.292,1.229,0.459,1.92,0.459h2.539h8.232c4.268,0,7.74,3.473,7.74,7.741c0,2.356,1.912,4.267,4.268,4.267
						s4.265-1.911,4.265-4.267c0-8.974-7.299-16.275-16.272-16.275h-9.746l-25.382-12.929c0.203-1.3,0.313-2.56,0.306-3.784
						c-0.065-10.603-8.645-15.952-15.088-19.052c-5.171-2.49-9.583-3.701-13.49-3.701c-12.748,0-18.819,12.638-25.848,27.267
						c-6.99,14.517-8.798,23.413-6.241,30.703c1.551,4.418,4.659,7.974,9.663,11c1.104,0.668,2.301,1.313,3.593,1.933
						c0.631,0.303,1.252,0.582,1.863,0.842c0.747,0.346,1.472,0.698,2.176,1.052c9.367,4.71,15.119,10.171,17.521,16.623
						c2.552,6.854,1.455,15.331-3.258,25.191c-0.074,0.155-0.135,0.315-0.19,0.476c-0.33,0.975-0.3,2.042,0.1,3.002
						c0.465,1.12,1.384,1.989,2.529,2.39l8.966,3.142l5.345,1.874c0.468,0.164,0.943,0.241,1.412,0.241
						c1.761,0,3.411-1.101,4.024-2.857c0.781-2.224-0.391-4.659-2.611-5.438l-1.307-0.458l-8.156-2.858L278.737,326.424z
						 M263.191,278.114c-2.048,0-4.393-0.574-7.125-1.734c-0.519-0.239-1.043-0.476-1.576-0.71
						c-4.954-2.379-7.771-4.938-8.862-8.047c-1.681-4.79,0.133-12.245,5.879-24.179c7.494-15.598,11.475-22.432,18.159-22.432
						c2.595,0,5.796,0.934,9.786,2.856c8.567,4.122,10.104,7.698,10.246,10.951l-10.155-5.171c-2.099-1.071-4.667-0.235-5.737,1.865
						c-1.07,2.099-0.234,4.669,1.865,5.738l12.289,6.261c-1.445,4.063-3.684,8.844-6.365,14.413
						C274.705,272.265,269.373,278.114,263.191,278.114z"/>
					<path fill="#F7CF40" d="M308.593,184.387c-1.997-3.857-5.373-6.705-9.51-8.017c-2.446-0.777-5.066-1.171-7.789-1.171
						c-6.733,0-12.983,2.437-16.374,6.062l35.486,11.262C310.522,189.731,309.911,186.941,308.593,184.387z"/>
					<path fill="#010101" d="M267.279,187.788l2.338,0.744c-0.69,5.025,0.173,10.131,2.556,14.725
						c3.044,5.872,8.196,10.208,14.502,12.209c2.483,0.79,4.999,1.164,7.479,1.164c10.508,0,20.287-6.748,23.634-17.288
						c1.997-6.295,1.423-12.999-1.617-18.875c-3.044-5.885-8.196-10.229-14.506-12.23c-3.282-1.042-6.773-1.57-10.371-1.57
						c-12.827,0-23.845,6.482-26.792,15.765c-0.341,1.079-0.242,2.249,0.279,3.254C265.302,186.689,266.201,187.446,267.279,187.788
						z M289.256,207.333c-4.135-1.312-7.51-4.155-9.507-8.004c-1.325-2.557-1.932-5.355-1.81-8.157l29.878,9.483
						C303.939,206.657,296.386,209.594,289.256,207.333z M291.294,175.199c2.723,0,5.343,0.394,7.789,1.171
						c4.137,1.312,7.513,4.159,9.51,8.017c1.318,2.554,1.93,5.345,1.813,8.136l-35.486-11.261
						C278.311,177.636,284.561,175.199,291.294,175.199z"/>
				</g>
				<g display="none" clip-path="url(#SVGID_4_)">
					<path display="inline" fill="#FED5A1" d="M325.617,280.03c4.127,0,8.091-1.076,11.583-3.085l-31.816-31.815
						c-2.005,3.491-3.078,7.456-3.076,11.588c0.002,6.223,2.428,12.074,6.828,16.475
						C313.546,277.603,319.399,280.031,325.617,280.03z"/>
					<path display="inline" fill="#73C7AC" d="M348.92,256.724c0.003-6.232-2.418-12.09-6.821-16.492
						c-4.394-4.395-10.247-6.814-16.482-6.814c-4.131,0-8.094,1.06-11.573,3.053l31.816,31.816
						C347.854,264.807,348.916,260.849,348.92,256.724z"/>
					<path display="inline" fill="#010101" d="M325.619,292.276c9.489,0,18.42-3.704,25.143-10.427
						c0.002-0.002,0.005-0.004,0.006-0.006c6.699-6.702,10.393-15.619,10.398-25.111c0.007-9.506-3.69-18.442-10.407-25.16
						c-6.706-6.707-15.636-10.401-25.143-10.401s-18.433,3.692-25.135,10.396c-0.004,0.001-0.006,0.004-0.006,0.006
						c-6.721,6.721-10.418,15.653-10.414,25.149c0.004,9.493,3.703,18.417,10.416,25.132
						C307.199,288.575,316.127,292.277,325.619,292.276z M325.616,233.417c6.235,0,12.089,2.419,16.482,6.814
						c4.403,4.402,6.824,10.26,6.821,16.493c-0.004,4.125-1.065,8.083-3.061,11.563l-31.816-31.816
						C317.522,234.478,321.485,233.417,325.616,233.417z M305.384,245.13l31.815,31.815c-3.491,2.01-7.455,3.085-11.583,3.085
						c-6.219,0-12.07-2.428-16.481-6.837c-4.4-4.401-6.827-10.252-6.829-16.475C302.306,252.586,303.379,248.621,305.384,245.13z"/>
					<path display="inline" fill="#FED5A1" d="M285.729,287.788c-8.585-11.436-14.175-12.163-18.938-11.25
						c-0.053,0.01-0.107,0.027-0.16,0.038c0.482,0.667,0.972,1.331,1.485,1.991c2.072,2.673,1.584,6.519-1.088,8.591
						c-1.116,0.864-2.437,1.284-3.748,1.284c-1.827,0-3.636-0.815-4.844-2.371c-1.136-1.466-2.209-2.957-3.228-4.468
						c-5.2,3.147-11.14,7.514-18.009,12.679c-4.308,3.233-7.962,6.206-11.019,8.972c3.732-1.354,8.273-2.296,14.263-2.296
						c11.9,0,18.095,3.718,23.559,6.996c4.889,2.934,8.751,5.25,17.261,5.25c3.224,0,5.778-0.333,7.977-0.907
						C294.085,305.858,294.659,299.675,285.729,287.788z"/>
					<path display="inline" fill="#010101" d="M226.18,303.254c3.057-2.767,6.711-5.739,11.019-8.972
						c6.869-5.166,12.81-9.532,18.009-12.679c1.018,1.511,2.091,3.002,3.228,4.468c1.208,1.557,3.017,2.372,4.844,2.372
						c1.311,0,2.632-0.419,3.748-1.284c2.673-2.072,3.161-5.918,1.088-8.591c-0.513-0.661-1.003-1.325-1.485-1.991
						c0.053-0.01,0.107-0.027,0.16-0.038c4.763-0.914,10.354-0.187,18.938,11.25c8.931,11.888,8.356,18.071,3.511,24.51
						c3.604-0.938,6.245-2.522,9.282-4.343c1.964-1.178,4.027-2.411,6.409-3.509c0.331-7.378-2.796-15.206-9.411-24.01
						c-6.163-8.21-16.087-18.796-31.042-15.922c-1.414,0.272-2.842,0.667-4.287,1.152c-9.545-20.537-5.419-41.88,11.942-56.07
						c2.618-2.14,3.006-5.998,0.865-8.617c-2.14-2.617-5.997-3.005-8.615-0.865c-13.286,10.859-20.692,25.123-21.419,41.247
						c-0.441,9.8,1.725,19.933,6.218,29.599c-5.819,3.485-12.137,8.114-19.339,13.532c-14.761,11.081-22.959,19.867-26.453,28.534
						c6.003-0.59,9.392-2.611,13.493-5.071C219.597,306.325,222.495,304.589,226.18,303.254z"/>
					<path display="inline" fill="#73C7AC" d="M158.806,313.204c8.509,0,12.37,2.318,17.259,5.251
						c5.464,3.279,11.658,6.996,23.559,6.996s18.094-3.717,23.559-6.996c4.889-2.933,8.751-5.251,17.259-5.251
						c8.508,0,12.371,2.318,17.259,5.251c5.465,3.279,11.659,6.996,23.561,6.996s18.096-3.716,23.56-6.996
						c4.891-2.933,8.751-5.251,17.26-5.251c8.511,0,12.373,2.318,17.263,5.251c5.466,3.279,11.658,6.996,23.561,6.996
						c11.9,0,18.096-3.716,23.562-6.996c4.888-2.933,8.75-5.251,17.26-5.251c3.382,0,6.123-2.742,6.123-6.122
						c0-3.383-2.741-6.124-6.123-6.124c-11.901,0-18.096,3.716-23.561,6.996c-4.891,2.934-8.752,5.25-17.261,5.25
						c-8.512,0-12.372-2.316-17.263-5.25c-5.465-3.28-11.658-6.996-23.562-6.996c-7.623,0-12.901,1.528-17.149,3.487
						c-2.384,1.099-4.445,2.332-6.409,3.509c-3.037,1.822-5.68,3.405-9.283,4.343c-2.198,0.574-4.754,0.907-7.977,0.907
						c-8.508,0-12.371-2.316-17.261-5.25c-5.464-3.278-11.659-6.996-23.559-6.996c-5.989,0-10.531,0.942-14.263,2.296
						c-3.685,1.335-6.583,3.071-9.296,4.7c-4.101,2.461-7.491,4.482-13.495,5.071c-1.153,0.114-2.393,0.179-3.764,0.179
						c-8.508,0-12.371-2.316-17.259-5.25c-5.465-3.278-11.66-6.996-23.56-6.996c-3.381,0-6.123,2.741-6.123,6.124
						C152.683,310.462,155.425,313.204,158.806,313.204z"/>
					<path display="inline" fill="#73C7AC" d="M403.726,337.697c-11.9,0-18.096,3.715-23.561,6.996
						c-4.891,2.933-8.751,5.251-17.261,5.251c-8.511,0-12.372-2.318-17.262-5.251c-5.466-3.279-11.659-6.996-23.562-6.996
						c-11.899,0-18.095,3.715-23.56,6.996c-4.889,2.933-8.751,5.251-17.26,5.251c-8.508,0-12.371-2.318-17.261-5.251
						c-5.464-3.278-11.659-6.996-23.559-6.996c-11.9,0-18.095,3.717-23.559,6.996c-4.889,2.933-8.751,5.251-17.259,5.251
						c-8.508,0-12.371-2.318-17.259-5.251c-5.465-3.278-11.66-6.996-23.56-6.996c-3.381,0-6.123,2.742-6.123,6.123
						s2.742,6.124,6.123,6.124c8.509,0,12.37,2.316,17.259,5.25c5.464,3.278,11.658,6.996,23.559,6.996s18.094-3.717,23.559-6.996
						c4.889-2.934,8.751-5.25,17.259-5.25c8.508,0,12.371,2.316,17.259,5.25c5.465,3.278,11.659,6.996,23.561,6.996
						s18.096-3.717,23.56-6.996c4.891-2.934,8.751-5.25,17.26-5.25c8.511,0,12.373,2.316,17.263,5.25
						c5.466,3.278,11.658,6.996,23.561,6.996c11.9,0,18.096-3.717,23.562-6.996c4.888-2.934,8.75-5.25,17.26-5.25
						c3.382,0,6.123-2.743,6.123-6.124C409.85,340.439,407.108,337.697,403.726,337.697z"/>
				</g>
			</g>
		</g>
		<g id="Tip_3" display="none">
			<g id="Insert_Finger_2_" display="inline">
				<defs>
					<circle id="SVGID_5_" cx="281.267" cy="281.266" r="281.267"/>
				</defs>
				<clipPath id="SVGID_6_">
					<use xlink:href="#SVGID_5_"  overflow="visible"/>
				</clipPath>
				<circle clip-path="url(#SVGID_6_)" fill="#4CC2C3" cx="281.267" cy="281.266" r="281.267"/>
				
					<circle id="Outline_2_" display="none" clip-path="url(#SVGID_6_)" fill="none" stroke="#4F77BB" stroke-width="11.2677" stroke-miterlimit="10" cx="281.267" cy="281.266" r="281.267"/>
				<g clip-path="url(#SVGID_6_)">
					<path fill="#3E3D3D" d="M279.55,323.812c-24.14-5.978-42.072-14.714-45.751-1.265c-4.483,16.323,0.575,26.898,0.575,26.898
						s27.358,19.313,30.922,11.725c2.873-6.208,5.518-11.84,7.931-16.668C275.986,338.754,279.55,323.812,279.55,323.812z"/>
					<path fill="#F3B382" d="M205.521,379.563c0.575-4.713,20.691-5.057,23.795-6.896c1.61-0.92,2.875-3.564,6.897-4.139
						c5.173-0.804,8.622,2.989,10.461,2.644c9.426-1.84,35.291-4.022,46.785-6.207c2.644-0.46,5.286-1.38,8.161-1.265
						c3.793,0.114,4.138,22.646,3.104,22.646c-16.553-0.575-56.211-3.104-62.303-3.564c0,0-18.277,1.609-22.646,1.609
						C217.131,384.39,204.946,384.276,205.521,379.563z"/>
					<path fill="#3E3D3D" d="M304.264,370.941l-2.988,15.289c13.679,0.92,56.211-1.609,55.751-17.013
						c-0.804-31.726-77.017-40.002-77.017-40.002l-0.46-6.553c0.804-6.897-48.624,17.472-45.176,26.784
						c3.794,10.116,11.15,17.127,26.439,18.507C279.779,369.562,304.264,370.941,304.264,370.941z"/>
					<path fill="#333333" d="M304.264,370.941h29.772C334.036,370.941,315.069,375.079,304.264,370.941z"/>
					<path fill="#B3253C" d="M285.643,249.783c1.608-14.024-9.886-18.507-16.324-34.141c-0.804-1.954-9.081-7.701-13.679-8.162
						c-5.058-0.459-10.346-0.115-14.484,3.679c-3.219,2.987-10.001,12.415-7.126,39.198c1.724,45.981-0.46,74.144-0.46,74.144
						c21.151,7.702,45.98-1.954,45.98-1.954c-1.265-41.152-2.874-48.97,0.345-62.879
						C279.779,259.783,285.183,253.806,285.643,249.783z"/>
					<path fill="#E3A47A" d="M266.215,209.32c0,0-0.459-7.702-2.069-17.012l-15.289-2.3c2.299,9.312-3.219,18.393-3.219,18.393
						c14.484-0.46,20.001,5.402,23.565,7.241L266.215,209.32z"/>
					<path fill="#F3B382" d="M273.803,170.466c3.792-6.321,0.344-11.955-2.07-15.059c-7.357-9.656-14.369-10-23.105-8.967
						c-11.61,1.381-12.529,32.417-10.92,37.475c4.138,13.104,23.22,16.208,30.807,15.519c8.391-0.689,5.978-3.333,5.289-6.667
						c0-0.115,0.344-0.69,0.344-0.69c-0.115-1.149-0.344-2.643,0.23-4.252c0,0-0.46-1.035-0.46-1.496
						c-0.114-0.344-0.114-0.573,0.345-0.804c1.149-0.576,2.298-1.15,2.643-1.61C278.285,182.191,272.078,173.455,273.803,170.466z"
						/>
					<path fill="#D5876B" d="M269.664,189.893c0,0,0.804,0.345,4.598,0c0.459-0.229,1.149-0.918,0.344-1.839
						C274.147,187.365,272.308,189.203,269.664,189.893z"/>
					<path fill="#CD785E" d="M269.664,189.893c0,0,0.92,1.84,4.598,2.3c0.459-0.116,0.804-0.576,0.919-0.805
						c0.345-1.15-0.805-1.495-0.805-1.495C270.584,190.237,269.664,189.893,269.664,189.893z"/>
					<path fill="#603114" d="M247.708,144.603c-14.139,1.609-30.692,24.14-8.622,45.981c1.495,1.493,4.599,2.987,8.622-0.806
						c2.874-2.644,4.598-5.978,4.598-5.978c0.575-1.034,1.035-2.068,1.609-3.333c0.575-1.264-1.034-8.161,0.345-8.505
						c13.679-3.793,18.737-11.84,18.277-15.519C269.894,147.821,262.767,142.878,247.708,144.603z"/>
					<path fill="#F3B382" d="M249.433,180.007c2.874,6.092,5.518,5.977,9.196,5.288l-3.218-9.541l-2.299-3.678
						C249.317,172.881,246.674,174.03,249.433,180.007z"/>
					<path fill="#4B2512" d="M227.937,168.743c-3.678-2.414-2.874-9.427,1.725-15.634c4.599-6.207,11.15-9.195,14.829-6.782
						c3.678,2.414,2.298,7.817-2.299,14.024C237.593,166.443,231.615,171.156,227.937,168.743z"/>
					<g>
						<path fill="#603114" d="M255.87,173.34c-0.345-1.15-0.459-2.184-0.575-2.988c-0.115-1.15,0-1.956,0-1.956l-3.908,1.956
							c0.115,0.574,0.115,1.264,0.23,1.838c0,0,0.459-0.229,1.149-0.574h-0.115c0.69,0.804,1.495,2.183,2.414,4.253
							C255.065,175.869,256.904,176.79,255.87,173.34z"/>
						<path fill="#603114" d="M225.637,168.512c-3.793-2.529-2.873-10.23,2.069-17.013c4.943-6.782,12.07-10.23,15.979-7.586
							c3.793,2.527,2.298,8.391-2.759,15.173C235.983,165.983,229.431,171.156,225.637,168.512z"/>
					</g>
					<path fill="#4B2512" d="M226.442,155.752c-0.459-0.345,0.46-2.184,1.954-4.253c1.495-2.069,3.104-3.563,3.563-3.219
						c0.461,0.345-0.458,1.839-1.954,3.909C228.511,154.144,226.902,155.983,226.442,155.752z"/>
					<path fill="#F3B382" d="M355.647,350.48c1.148-3.219-9.886-7.932-21.037-12.645c-3.907-1.609-10.92-5.403-10.92-5.403
						c-25.06-25.175-34.484-42.073-34.484-42.073c-10.576-21.496-24.486-66.786-30.578-73.454
						c-6.092-6.667-21.036,4.023-16.668,12.185c2.874,9.655,5.633,16.208,11.726,26.783c10.115,21.381,19.196,35.405,23.105,42.417
						c6.438,11.38,34.601,38.279,34.601,38.279s8.276,8.392,11.608,10.691c3.451,2.414,8.276,4.828,13.449,4.828
						C340.474,352.089,354.154,354.503,355.647,350.48z"/>
				</g>
			</g>
		</g>
		<g id="Tip_4">
			<g id="Insert_Finger_3_">
				<defs>
					<circle id="SVGID_7_" cx="281.267" cy="281.266" r="281.267"/>
				</defs>
				<clipPath id="SVGID_8_">
					<use xlink:href="#SVGID_7_"  overflow="visible"/>
				</clipPath>
				<circle clip-path="url(#SVGID_8_)" fill="#8DCFB1" cx="281.267" cy="281.266" r="281.267"/>
				<g clip-path="url(#SVGID_8_)">
					<g>
						<path fill="#EE8826" d="M171.209,187.134c-1.663-7.291-8.948-11.87-16.239-10.207c-7.291,1.664-11.87,8.948-10.208,16.239
							c1.663,7.29,8.948,11.87,16.239,10.207C168.294,201.709,172.873,194.425,171.209,187.134z M156.579,183.974
							c-3.54,0.807-5.764,4.344-4.956,7.884c0.316,1.384-0.551,2.762-1.935,3.077c-1.384,0.316-2.762-0.55-3.078-1.934
							c-1.438-6.304,2.522-12.602,8.826-14.04c1.383-0.315,2.761,0.549,3.077,1.935
							C158.829,182.281,157.962,183.659,156.579,183.974z"/>
						<g>
							<path fill="#FDD44B" d="M144.029,239.248c-0.11-0.074-0.226-0.141-0.333-0.221
								C143.804,239.106,143.919,239.174,144.029,239.248z"/>
							<path fill="#FDD44B" d="M144.659,239.646c0.139,0.079,0.284,0.147,0.428,0.219
								C144.943,239.793,144.798,239.724,144.659,239.646z"/>
							<path fill="#FDD44B" d="M203.479,179.138c-0.354-4.19,0.757-8.996,3.401-14.692c2.619-5.645,5.572-16.141-3.493-23.798
								c-2.926-1.243-6.155-1.476-9.646-0.679c-5.368,1.224-11.231,4.826-16.511,10.143c-8.28,8.336-18.592,11.186-32.258,14.304
								l-4.15,0.942c-14.702,3.354-16.843,11.732-16.998,19.485c-0.122,6.133,3.54,13.277,10.887,21.233
								c10.634,11.513,9.144,24.189,9.075,24.724c-0.003,0.024-0.007,0.048-0.011,0.072c-0.581,3.689,0.398,7.131,2.685,9.552
								c1.714,0.55,3.587,0.646,5.483,0.213c2.889-0.66,7.191-2.805,11.257-9.276c6.083-9.683,12.024-13.978,22.694-16.41
								c4.386-1.001,9.45-1.706,15.863-2.598l0.155-0.253c0.929-0.129,1.778-0.517,2.629-0.711c0,0,0,0,0.002,0
								c6.617-1.509,10.765-4.708,11.582-9.413c0.696-4-1.211-8.227-4.673-10.438C206.585,188.424,203.918,184.328,203.479,179.138z
								 M162.146,208.384c-10.054,2.294-20.101-4.021-22.394-14.075c-2.294-10.055,4.021-20.1,14.077-22.394
								c10.054-2.292,20.1,4.021,22.393,14.076C178.515,196.046,172.2,206.092,162.146,208.384z"/>
							<path fill="#FDD44B" d="M146.158,240.325c-0.16-0.059-0.322-0.117-0.479-0.183
								C145.836,240.209,145.998,240.267,146.158,240.325z"/>
						</g>
						<path fill="#402E21" d="M153.829,171.915c-10.055,2.294-16.369,12.339-14.076,22.394c2.293,10.055,12.34,16.369,22.394,14.075
							c10.054-2.292,16.369-12.338,14.076-22.393C173.928,175.937,163.883,169.623,153.829,171.915z M144.765,193.166
							c-1.663-7.291,2.916-14.575,10.208-16.239c7.29-1.663,14.574,2.917,16.237,10.207c1.663,7.291-2.916,14.576-10.206,16.238
							C153.711,205.036,146.427,200.456,144.765,193.166z"/>
						<path fill="#402E21" d="M155.436,178.962c-6.304,1.438-10.264,7.735-8.826,14.04c0.315,1.384,1.694,2.25,3.078,1.934
							c1.385-0.315,2.251-1.693,1.935-3.077c-0.808-3.54,1.416-7.077,4.956-7.884c1.383-0.315,2.25-1.693,1.934-3.078
							C158.197,179.511,156.819,178.646,155.436,178.962z"/>
						<path fill="#402E21" d="M211.542,166.61c2.667-5.745,7.464-20.213-5.527-30.461c-4.997-3.942-11.056-5.247-17.523-3.772
							c-6.304,1.439-13.057,5.535-19.015,11.533c-7.322,7.371-16.534,9.898-29.754,12.914l-4.149,0.943
							c-7.609,1.735-12.995,4.813-16.466,9.41c-2.923,3.872-4.404,8.774-4.527,14.984c-0.151,7.507,3.97,15.859,12.248,24.824
							c8.821,9.55,7.836,19.855,7.755,20.557c-0.868,5.613,0.845,10.897,4.704,14.503c3.692,3.448,8.721,4.762,13.798,3.604
							c3.838-0.875,9.462-3.59,14.466-11.552c5.381-8.563,10.116-11.998,19.485-14.134c4.17-0.952,9.137-1.642,15.428-2.517
							l0.206-0.029c1.074-0.15,2.122-0.34,3.113-0.566c0.002,0,0.002,0,0.004,0c8.642-1.972,14.272-6.99,15.451-13.769
							c1.059-6.079-1.754-12.414-6.995-15.764C207.678,183.12,206.846,176.732,211.542,166.61z M216.175,202.199
							c-0.817,4.704-4.914,8.126-11.53,9.637c0,0,0,0-0.003,0c-0.85,0.194-1.751,0.358-2.678,0.486l-0.207,0.029
							c-6.413,0.892-11.478,1.597-15.863,2.597c-10.672,2.434-16.611,6.729-22.695,16.412c-4.066,6.472-8.367,8.616-11.258,9.276
							c-3.386,0.771-6.719-0.084-9.144-2.35c-2.605-2.433-3.744-6.076-3.125-9.995c0.002-0.022,0.006-0.048,0.009-0.073
							c0.07-0.533,1.559-13.208-9.075-24.723c-7.347-7.956-11.01-15.099-10.887-21.231c0.155-7.753,2.296-16.132,17-19.486
							l4.149-0.943c13.666-3.117,23.978-5.967,32.257-14.303c5.279-5.316,11.143-8.918,16.51-10.143
							c4.97-1.133,9.409-0.193,13.195,2.795c9.751,7.691,6.722,18.502,4.05,24.262c-2.645,5.697-3.756,10.502-3.401,14.692
							c0.439,5.19,3.131,9.399,7.996,12.51C214.939,193.859,216.872,198.199,216.175,202.199z"/>
					</g>
					<g>
						<path fill="#E6E6E5" stroke="#402E21" stroke-width="4.6" stroke-miterlimit="10" d="M387.615,143.815
							c-1.665,0.682-2.883,1.837-3.659,3.209c-0.484,0.859-1.319,1.416-2.3,1.53c-1.567,0.187-3.102,0.863-4.375,2.137
							c-2.264,2.267-2.829,5.881-1.354,8.727c1.171,2.267,3.269,3.638,5.536,3.98c2.56,0.387,4.91,1.623,6.345,3.777l12.417,18.66
							c0.094,0.136,0.201,0.253,0.302,0.384l5.064,2.697c0.619,0.024,1.246-0.031,1.867-0.204c0.043-0.012,0.079-0.038,0.122-0.051
							l-0.557-4.488l4.685,0.941c0.941-2.017,0.883-4.451-0.435-6.429l-12.514-18.803c-1.433-2.155-1.665-4.801-1.035-7.313
							c0.558-2.223,0.104-4.688-1.536-6.643C394.131,143.475,390.581,142.601,387.615,143.815z"/>
						<path fill="#C0BFBF" d="M385.643,154.267l-1.506,1.125c-1.45-1.938-2.032-4.414-1.606-6.79l1.852,0.333
							C384.044,150.8,384.504,152.743,385.643,154.267z"/>
						<g>
							<path fill="#EEB04B" d="M414.396,185.658l-7.373-1.48l0.733,5.9l-10.981-5.852c-0.472,2.551-0.02,5.276,1.523,7.596
								c6.086,9.144,8.49,20.115,7.528,31.058c-0.522,5.917,0.9,12.044,4.479,17.362c7.902,11.749,24.064,15.366,36.201,8.074
								c13.268-7.971,17.063-25.303,8.584-38.044c-3.166-4.755-7.579-8.175-12.519-10.123c-10.407-4.1-19.096-11.646-25.295-20.96
								c-0.375-0.566-0.813-1.063-1.272-1.529l-1.606,7.999L414.396,185.658z"/>
							<path fill="#EEB04B" stroke="#402E21" stroke-width="4.6" stroke-miterlimit="10" d="M460.924,230.853
								c-0.045,0.227-0.092,0.451-0.144,0.677c-1.745,7.757-6.473,14.291-13.307,18.396c-12.928,7.765-30.301,3.893-38.729-8.635
								c-3.667-5.449-5.37-12.048-4.795-18.579c0.968-10.984-1.528-21.306-7.218-29.851c-1.751-2.631-2.391-5.82-1.807-8.979
								l0.468-2.523l10.05,5.355l-0.609-4.893l8.088,1.624l1.929-9.612l2.482,2.498c0.622,0.625,1.1,1.2,1.51,1.814
								c6.272,9.426,14.715,16.428,24.417,20.252c5.485,2.164,10.118,5.907,13.394,10.831
								C460.933,215.655,462.438,223.309,460.924,230.853z"/>
						</g>
						<path fill="#FBD490" d="M443.455,208.104c-0.052,0.266-0.162,0.521-0.336,0.753c-0.62,0.833-1.8,1.003-2.631,0.382
							c-1.621-1.209-3.386-2.192-5.246-2.925c-0.968-0.377-1.453-1.451-1.062-2.436c0.38-0.966,1.47-1.441,2.438-1.063
							c2.172,0.854,4.229,2.001,6.118,3.41C443.339,206.675,443.595,207.413,443.455,208.104z"/>
						<path fill="#FBD490" d="M454.428,231.413c-0.178,0.883-0.972,1.536-1.903,1.505c-1.036-0.033-1.852-0.902-1.817-1.941
							c0.208-6.311-1.952-12.73-5.926-17.612c-0.656-0.803-0.535-1.988,0.27-2.643c0.807-0.657,1.987-0.535,2.644,0.27
							c4.537,5.577,7.007,12.907,6.77,20.111C454.462,231.209,454.448,231.311,454.428,231.413z"/>
						<circle fill="#FBD490" cx="416.943" cy="230.268" r="3.76"/>
					</g>
					<g>
						<path fill="#85BD94" d="M121.101,314.603l-3.804-9.308l-1.754,0.717l3.804,9.309c0.285-0.133,0.576-0.262,0.869-0.382
							C120.508,314.817,120.803,314.708,121.101,314.603z"/>
						<g>
							<path fill="#CF5A3F" d="M165.075,419.805c-0.542,0.261-1.091,0.513-1.659,0.745
								C163.984,420.318,164.534,420.066,165.075,419.805z"/>
							<path fill="#CF5A3F" d="M157.845,356.597c-7.087-7.18-13.792-13.981-17.501-26.717c-2.602-0.417-5.405-0.699-7.255-0.518
								l-2.287,6.458c-0.223,0.649-0.657,1.101-1.467,1.432l0,0l-0.411,0.168l0.059,0.146c0,0-1.196,0.188-1.873-0.151l-6.08-3.129
								l1.388,0.65c-0.907,1.018-1.821,2.189-2.701,3.377c6.272,11.685,6.261,21.232,6.236,31.316
								c-0.028,9.843-0.05,20.019,5.609,33.867c5.859,14.337,19.752,20.978,33.51,16.309c13.092-6.305,18.353-20.773,12.492-35.111
								C171.905,370.848,164.757,363.603,157.845,356.597z M157.456,415.322c0.166,1.168-0.494,2.262-1.537,2.689
								c-0.186,0.076-0.383,0.131-0.589,0.161c-0.202,0.03-4.99,0.695-10.511-1.623c-5.028-2.109-11.69-7.171-14.876-19.29
								c-0.354-1.35,0.456-2.731,1.802-3.084c1.347-0.355,2.728,0.452,3.083,1.8c4.985,18.973,19.182,17.279,19.781,17.199
								C155.987,412.988,157.261,413.948,157.456,415.322z"/>
						</g>
						<g>
							<path fill="#85BD94" d="M127.948,318.629c0.102,0.005,0.206,0.01,0.309,0.017
								C128.154,318.639,128.05,318.635,127.948,318.629z"/>
							<path fill="#85BD94" d="M129.295,318.743c0.054,0.007,0.108,0.019,0.164,0.026
								C129.404,318.761,129.35,318.75,129.295,318.743z"/>
							<path fill="#85BD94" d="M126.87,318.619c0.036-0.002,0.067,0,0.101,0C126.937,318.619,126.905,318.617,126.87,318.619z"/>
							<path fill="#85BD94" d="M131.69,319.249c0.074,0.023,0.148,0.049,0.221,0.071
								C131.838,319.297,131.765,319.271,131.69,319.249z"/>
							<path fill="#85BD94" d="M134.257,320.234c-0.082-0.039-0.163-0.082-0.243-0.118
								C134.094,320.152,134.177,320.195,134.257,320.234z"/>
							<path fill="#85BD94" d="M130.36,318.926c0.111,0.022,0.224,0.045,0.334,0.069
								C130.584,318.971,130.472,318.948,130.36,318.926z"/>
							<path fill="#85BD94" d="M132.724,319.592c0.117,0.042,0.232,0.083,0.348,0.128
								C132.956,319.676,132.841,319.634,132.724,319.592z"/>
							<path fill="#85BD94" d="M125.53,318.728c0.094-0.012,0.188-0.022,0.283-0.033
								C125.718,318.706,125.625,318.716,125.53,318.728z"/>
							<path fill="#85BD94" d="M115.377,332.828c0.25-0.273,0.504-0.543,0.759-0.804
								C115.881,332.285,115.627,332.554,115.377,332.828z"/>
							<path fill="#85BD94" d="M124.464,318.9c0.014-0.003,0.026-0.004,0.04-0.007C124.49,318.896,124.478,318.896,124.464,318.9z"
								/>
							<path fill="#85BD94" d="M134.728,320.475c-2.792-0.585-5.687-0.416-8.34,0.669c-3.929,1.606-6.831,5.015-8.271,9.068
								c-0.011,0.007-0.019,0.014-0.026,0.021c0.585-0.465,1.166-0.857,1.732-1.145c0.711-0.362,1.555-0.364,2.267-0.006
								l4.909,2.454l1.784-5.189c0.259-0.754,0.859-1.344,1.625-1.584c2.488-0.79,6.4-0.513,9.687-0.038
								C138.592,322.947,136.744,321.512,134.728,320.475z"/>
							<path fill="#85BD94" d="M116.944,331.232c-0.172,0.159-0.342,0.327-0.513,0.496
								C116.603,331.558,116.774,331.391,116.944,331.232z"/>
							<path fill="#85BD94" d="M117.822,330.458c-0.185,0.152-0.367,0.308-0.548,0.472
								C117.456,330.765,117.637,330.61,117.822,330.458z"/>
							<path fill="#85BD94" d="M113.805,334.674c0.172-0.213,0.345-0.424,0.522-0.635
								C114.15,334.25,113.977,334.461,113.805,334.674z"/>
							<path fill="#85BD94" d="M123.159,319.245c0.086-0.027,0.171-0.054,0.259-0.079
								C123.33,319.19,123.245,319.217,123.159,319.245z"/>
							<path fill="#85BD94" d="M112.881,335.848c0.222-0.295,0.458-0.594,0.694-0.892
								C113.34,335.254,113.104,335.552,112.881,335.848z"/>
							<path fill="#85BD94" d="M114.59,333.725c0.2-0.231,0.398-0.459,0.601-0.686C114.988,333.266,114.79,333.494,114.59,333.725z"
								/>
						</g>
						<path fill="#402E21" d="M154.609,413.176c-0.6,0.08-14.796,1.774-19.781-17.199c-0.355-1.349-1.736-2.156-3.083-1.8
							c-1.346,0.353-2.156,1.734-1.802,3.084c3.186,12.119,9.848,17.18,14.876,19.29c5.521,2.318,10.309,1.652,10.511,1.623
							c0.206-0.03,0.403-0.085,0.589-0.161c1.043-0.427,1.703-1.521,1.537-2.689C157.261,413.948,155.987,412.988,154.609,413.176z"
							/>
						<path fill="#402E21" d="M161.438,353.049c-6.447-6.534-12.102-12.271-15.55-22.382c0.455-0.136,0.871-0.398,1.19-0.772
							c0.618-0.72,0.779-1.723,0.421-2.599c-2.069-5.06-6.158-9.328-11.218-11.709c-3.305-1.556-6.771-2.23-10.143-2.012
							l-5.122-12.529c-0.528-1.292-2.002-1.91-3.294-1.382l-6.428,2.627c-1.291,0.527-1.909,2-1.381,3.292l5.122,12.53
							c-2.559,2.205-4.562,5.116-5.831,8.54c-1.944,5.246-1.87,11.154,0.197,16.215c0.359,0.876,1.174,1.479,2.119,1.56
							c0.491,0.043,0.971-0.062,1.391-0.282c4.622,9.631,4.603,17.688,4.579,26.866c-0.027,9.852-0.06,21.02,5.979,35.792
							c3.512,8.597,9.758,15.159,17.582,18.479c7.632,3.24,16.234,3.228,24.219-0.036c0.009-0.004,0.018-0.009,0.027-0.014
							c0.011-0.003,0.02-0.006,0.031-0.01c7.984-3.263,14.131-9.279,17.312-16.938c3.258-7.849,3.117-16.907-0.397-25.501
							C176.204,368.012,168.359,360.062,161.438,353.049z M163.386,420.564c-0.009,0.004-0.019,0.006-0.03,0.01
							c-14.301,5.845-29.113-0.747-35.215-15.678c-5.66-13.847-5.632-24.026-5.604-33.87c0.028-10.086,0.049-19.636-6.222-31.321
							c1.594-2.155,3.399-4.302,4.818-5.456l6.187,3.093c0.678,0.337,1.432,0.343,2.083,0.078l0,0c0,0,0,0,0,0l0.001,0
							c0.808-0.33,1.208-0.866,1.432-1.515l2.251-6.544c1.853-0.181,4.654,0.102,7.257,0.519
							c3.708,12.735,10.414,19.536,17.499,26.715c6.914,7.006,14.063,14.252,19.722,28.099c6.103,14.93,0.151,30.01-14.15,35.855
							C163.405,420.554,163.396,420.56,163.386,420.564z M122.125,319.612c6.119-2.501,13.522-0.141,17.971,5.111
							c-3.288-0.475-7.199-0.75-9.688,0.039c-0.766,0.242-1.366,0.832-1.625,1.585l-1.784,5.189l-4.907-2.455
							c-0.714-0.357-1.558-0.355-2.27,0.006c-2.33,1.182-4.927,4.117-6.94,6.759C112.375,328.982,116.006,322.113,122.125,319.612z
							 M115.542,306.012l1.754-0.717l3.804,9.308c-0.298,0.104-0.593,0.214-0.886,0.335c-0.293,0.12-0.583,0.249-0.868,0.381
							L115.542,306.012L115.542,306.012z"/>
					</g>
					<g>
						<g>
							<path fill="#CF5A3F" d="M399.867,394.539c0.183,0.045,0.358,0.096,0.534,0.156
								C400.226,394.636,400.05,394.584,399.867,394.539z"/>
							<path fill="#CF5A3F" d="M384.327,396.164c0.063,0.105,0.129,0.204,0.185,0.313
								C384.456,396.368,384.39,396.27,384.327,396.164z"/>
							<path fill="#CF5A3F" d="M383.786,395.358c0.082,0.106,0.17,0.21,0.246,0.322
								C383.956,395.568,383.868,395.465,383.786,395.358z"/>
							<path fill="#CF5A3F" d="M383.461,394.962c-0.094-0.101-0.189-0.196-0.288-0.292
								C383.271,394.766,383.368,394.861,383.461,394.962z"/>
							<path fill="#CF5A3F" d="M382.49,394.083c0.106,0.08,0.21,0.162,0.314,0.248C382.7,394.245,382.598,394.163,382.49,394.083z"
								/>
							<path fill="#CF5A3F" d="M400.632,394.779c0.186,0.072,0.365,0.152,0.539,0.24
								C400.997,394.932,400.817,394.851,400.632,394.779z"/>
							<path fill="#CF5A3F" d="M404.179,398.042c-0.249-0.492-0.555-0.946-0.904-1.359
								C403.624,397.096,403.93,397.551,404.179,398.042z"/>
							<path fill="#CF5A3F" d="M398.858,394.366c0.265,0.021,0.525,0.064,0.78,0.116
								C399.384,394.43,399.123,394.388,398.858,394.366z"/>
							<path fill="#CF5A3F" d="M381.741,393.596c0.112,0.063,0.223,0.13,0.329,0.199
								C381.964,393.726,381.854,393.658,381.741,393.596z"/>
							<path fill="#CF5A3F" d="M401.331,395.097c0.23,0.124,0.454,0.259,0.668,0.41C401.785,395.356,401.562,395.22,401.331,395.097
								z"/>
							<path fill="#CF5A3F" d="M402.013,395.519c0.209,0.146,0.405,0.306,0.595,0.475
								C402.418,395.824,402.223,395.664,402.013,395.519z"/>
							<path fill="#CF5A3F" d="M402.723,396.104c0.157,0.148,0.31,0.304,0.453,0.466
								C403.032,396.408,402.88,396.252,402.723,396.104z"/>
							<path fill="#CF5A3F" d="M373.993,410.663c-0.054-0.104-0.105-0.209-0.158-0.313
								C373.888,410.455,373.939,410.56,373.993,410.663z"/>
							<path fill="#CF5A3F" d="M375.617,413.188c0.053,0.071,0.105,0.144,0.162,0.215
								C375.723,413.332,375.671,413.26,375.617,413.188z"/>
							<path fill="#CF5A3F" d="M373.245,409.073c-0.014-0.034-0.03-0.066-0.042-0.098
								C373.215,409.007,373.231,409.039,373.245,409.073z"/>
							<path fill="#CF5A3F" d="M374.886,412.162c-0.059-0.09-0.12-0.176-0.178-0.267
								C374.766,411.986,374.827,412.072,374.886,412.162z"/>
							<path fill="#CF5A3F" d="M404.215,398.044c-0.827-0.502-1.781-0.83-2.797-0.91c-2.554-0.201-5.052,1.209-6.354,3.596
								c-0.472,0.867-1.396,1.396-2.384,1.368c-1.063-0.031-2.044-0.109-3.102-0.245c-0.979-0.128-1.804-0.795-2.136-1.726
								c-0.133-0.369-0.294-0.72-0.476-1.055c0.021,0.003,0.043,0.01,0.067,0.014c-0.979-0.127-1.808-0.793-2.139-1.725
								c-0.105-0.301-0.235-0.59-0.378-0.87c-0.838-0.511-1.758-0.831-2.751-0.909c-3.679-0.292-6.897,2.681-7.211,6.62
								c-0.005,0.076-0.056,0.72-0.068,0.884c-0.374,4.732,0.964,9.169,3.486,12.592c2.49,2.166,5.613,3.569,9.052,3.84
								c9.102,0.72,17.161-6.721,17.941-16.588c0.013-0.165,0.064-0.821,0.069-0.883
								C405.15,400.602,404.814,399.225,404.215,398.044z"/>
							<path fill="#CF5A3F" d="M376.953,414.73c-0.088-0.09-0.175-0.181-0.263-0.273C376.778,414.55,376.864,414.64,376.953,414.73z
								"/>
							<path fill="#CF5A3F" d="M372.186,405.519c0.016,0.081,0.028,0.163,0.045,0.245
								C372.214,405.682,372.201,405.599,372.186,405.519z"/>
							<path fill="#CF5A3F" d="M372.6,407.224c0.032,0.112,0.067,0.222,0.103,0.335C372.667,407.446,372.632,407.335,372.6,407.224z
								"/>
							<path fill="#CF5A3F" d="M380.085,392.952c0.097,0.022,0.191,0.058,0.289,0.084
								C380.276,393.01,380.182,392.975,380.085,392.952z"/>
							<path fill="#CF5A3F" d="M371.836,401.956c0,0.115-0.001,0.229,0.003,0.342C371.835,402.185,371.836,402.07,371.836,401.956z"
								/>
							<path fill="#CF5A3F" d="M371.935,403.858c0.01,0.089,0.023,0.178,0.032,0.267
								C371.958,404.036,371.944,403.948,371.935,403.858z"/>
							<path fill="#CF5A3F" d="M380.938,393.216c0.111,0.043,0.218,0.096,0.326,0.145
								C381.156,393.313,381.05,393.26,380.938,393.216z"/>
						</g>
						<g>
							<path fill="#CF5A3F" d="M432.931,400.01c0.059,0.103,0.127,0.201,0.182,0.308C433.058,400.21,432.989,400.113,432.931,400.01
								z"/>
							<path fill="#CF5A3F" d="M448.466,398.38c0.181,0.046,0.359,0.096,0.534,0.156
								C448.825,398.476,448.646,398.426,448.466,398.38z"/>
							<path fill="#CF5A3F" d="M432.386,399.201c0.082,0.105,0.168,0.208,0.244,0.32
								C432.554,399.41,432.468,399.307,432.386,399.201z"/>
							<path fill="#CF5A3F" d="M432.058,398.803c-0.091-0.102-0.188-0.196-0.283-0.291
								C431.868,398.607,431.967,398.701,432.058,398.803z"/>
							<path fill="#CF5A3F" d="M449.231,398.621c0.184,0.072,0.363,0.152,0.539,0.24
								C449.595,398.773,449.416,398.692,449.231,398.621z"/>
							<path fill="#CF5A3F" d="M447.456,398.208c0.267,0.021,0.523,0.063,0.78,0.116
								C447.979,398.271,447.723,398.228,447.456,398.208z"/>
							<path fill="#CF5A3F" d="M452.346,401.147c0.158,0.235,0.302,0.48,0.43,0.736
								C452.647,401.627,452.504,401.383,452.346,401.147z"/>
							<path fill="#CF5A3F" d="M449.929,398.938c0.232,0.124,0.455,0.259,0.668,0.41
								C450.384,399.197,450.161,399.062,449.929,398.938z"/>
							<path fill="#CF5A3F" d="M431.088,397.924c0.108,0.08,0.212,0.162,0.315,0.249C431.3,398.086,431.196,398.003,431.088,397.924
								z"/>
							<path fill="#CF5A3F" d="M452.346,401.146c-0.146-0.217-0.306-0.423-0.473-0.622
								C452.04,400.723,452.199,400.929,452.346,401.146z"/>
							<path fill="#CF5A3F" d="M450.614,399.361c0.206,0.145,0.401,0.306,0.591,0.473
								C451.016,399.667,450.82,399.506,450.614,399.361z"/>
							<path fill="#CF5A3F" d="M451.322,399.945c0.156,0.147,0.309,0.303,0.452,0.466
								C451.631,400.248,451.479,400.092,451.322,399.945z"/>
							<path fill="#CF5A3F" d="M429.537,397.057c0.11,0.044,0.218,0.096,0.327,0.146
								C429.754,397.152,429.647,397.101,429.537,397.057z"/>
							<path fill="#CF5A3F" d="M422.592,414.504c-0.055-0.104-0.105-0.208-0.157-0.313
								C422.486,414.295,422.537,414.4,422.592,414.504z"/>
							<path fill="#CF5A3F" d="M421.844,412.915c-0.014-0.033-0.029-0.066-0.044-0.099
								C421.814,412.849,421.83,412.881,421.844,412.915z"/>
							<path fill="#CF5A3F" d="M423.483,416.003c-0.059-0.09-0.119-0.177-0.178-0.267
								C423.364,415.826,423.426,415.913,423.483,416.003z"/>
							<path fill="#CF5A3F" d="M425.551,418.571c-0.088-0.09-0.176-0.179-0.261-0.272
								C425.375,418.392,425.463,418.481,425.551,418.571z"/>
							<path fill="#CF5A3F" d="M430.341,397.437c0.111,0.062,0.221,0.13,0.329,0.199C430.562,397.566,430.453,397.5,430.341,397.437
								z"/>
							<path fill="#CF5A3F" d="M452.703,401.877c-0.826-0.503-1.729-0.826-2.74-0.906c-2.555-0.202-5.027,1.21-6.327,3.596
								c-0.472,0.869-1.384,1.398-2.372,1.37c-1.063-0.031-2.039-0.108-3.092-0.244c-0.981-0.127-1.806-0.794-2.134-1.727
								c-0.133-0.369-0.293-0.719-0.477-1.054c0.022,0.003,0.046,0.011,0.068,0.014c-0.979-0.127-1.805-0.794-2.136-1.725
								c-0.107-0.302-0.235-0.591-0.378-0.87c-0.839-0.512-1.867-0.839-2.863-0.918c-3.678-0.291-7.011,2.672-7.322,6.613
								c-0.004,0.056-0.057,0.714-0.069,0.883c-0.374,4.731,1.076,9.177,3.597,12.599c2.493,2.168,5.563,3.566,9,3.838
								c9.099,0.719,17.104-6.726,17.883-16.593c0.014-0.167,0.067-0.821,0.071-0.883
								C453.526,404.425,453.302,403.056,452.703,401.877z"/>
							<path fill="#CF5A3F" d="M424.214,417.029c0.055,0.071,0.107,0.145,0.162,0.215
								C424.321,417.173,424.269,417.1,424.214,417.029z"/>
							<path fill="#CF5A3F" d="M421.196,411.066c0.034,0.111,0.067,0.221,0.103,0.332
								C421.264,411.287,421.23,411.177,421.196,411.066z"/>
							<path fill="#CF5A3F" d="M428.685,396.793c0.098,0.023,0.19,0.057,0.287,0.083
								C428.875,396.85,428.782,396.816,428.685,396.793z"/>
							<path fill="#CF5A3F" d="M420.531,407.698c0.011,0.091,0.023,0.18,0.034,0.271
								C420.555,407.878,420.542,407.789,420.531,407.698z"/>
							<path fill="#CF5A3F" d="M420.432,405.796c0.001,0.115,0.001,0.229,0.004,0.344
								C420.433,406.026,420.433,405.911,420.432,405.796z"/>
							<path fill="#CF5A3F" d="M420.782,409.359c0.016,0.082,0.028,0.164,0.044,0.245
								C420.811,409.523,420.798,409.44,420.782,409.359z"/>
						</g>
						<g>
							<path fill="#85BD94" d="M424.269,325.537c-0.378-0.021-0.739-0.044-1.065-0.07
								C423.529,325.492,423.891,325.516,424.269,325.537z"/>
							<path fill="#85BD94" d="M457.603,309.561c-0.292,0.406-0.617,0.841-0.971,1.296
								C456.983,310.403,457.311,309.967,457.603,309.561z"/>
							<path fill="#85BD94" d="M425.717,325.596c-0.412-0.01-0.799-0.025-1.17-0.044
								C424.918,325.57,425.305,325.585,425.717,325.596z"/>
							<path fill="#85BD94" d="M455.485,312.277c0.409-0.488,0.793-0.964,1.145-1.417
								C456.277,311.313,455.895,311.789,455.485,312.277z"/>
							<path fill="#85BD94" d="M427.199,325.607c-0.485,0.003-0.955,0.001-1.4-0.009
								C426.244,325.608,426.714,325.611,427.199,325.607z"/>
							<path fill="#85BD94" d="M441.782,315.409c-5.623,2.601-9.925,6.72-12.804,10.151c4.03-0.184,8.982-0.946,13.697-3.127
								c5.628-2.601,9.926-6.721,12.809-10.153C451.453,312.464,446.495,313.23,441.782,315.409z"/>
							<path fill="#85BD94" d="M428.84,325.566c-0.472,0.021-0.928,0.032-1.372,0.038
								C427.912,325.599,428.368,325.586,428.84,325.566z"/>
						</g>
						<path fill="#402E21" d="M447.87,392.973c-2.774-0.219-5.49,0.591-7.716,2.182c-0.018-4.167-0.308-10.348-1.485-17.371
							c-2.719-16.214-9.013-29.39-18.23-38.223l0.714-9.021c0.519,0.06,1.097,0.118,1.729,0.167
							c5.616,0.444,13.99,0.196,21.999-3.508c12.608-5.83,19.206-17.943,19.479-18.456c0.391-0.726,0.415-1.593,0.071-2.341
							c-0.348-0.749-1.025-1.291-1.831-1.464c-0.073-0.016-1.861-0.397-4.681-0.621c-5.614-0.444-13.988-0.194-21.996,3.509
							c-5.964,2.757-10.575,6.916-13.813,10.593l0.618-7.827c0.114-1.445-0.966-2.709-2.411-2.823
							c-1.444-0.114-2.712,0.964-2.825,2.409l-2.283,28.874c-10.547,7.265-18.873,19.324-24.128,34.971
							c-2.267,6.75-3.522,12.811-4.195,16.922c-1.948-1.92-4.503-3.148-7.276-3.367c-6.565-0.519-12.346,4.613-12.887,11.441
							c-0.009,0.112-0.055,0.696-0.068,0.883c-1.01,12.754,7.922,23.9,19.909,24.848c11.986,0.947,22.558-8.658,23.565-21.411
							c0.014-0.188,0.06-0.772,0.068-0.883c0.54-6.828-4.359-12.805-10.928-13.323c-2.493-0.198-4.942,0.437-7.029,1.724
							c1.935-11.011,7.947-34.505,25.161-46.919c15.018,14.939,17.282,39.095,17.47,50.284c-1.854-1.595-4.172-2.604-6.664-2.802
							c-6.564-0.52-12.346,4.613-12.886,11.44c-0.01,0.109-0.055,0.695-0.069,0.883c-1.008,12.753,7.923,23.901,19.91,24.848
							c11.986,0.947,22.559-8.658,23.566-21.411c0.015-0.188,0.062-0.772,0.069-0.884
							C459.338,399.468,454.436,393.492,447.87,392.973z M404.897,402.924c-0.781,9.867-8.82,17.309-17.921,16.59
							c-9.1-0.719-15.867-9.332-15.088-19.198c0.014-0.165,0.063-0.808,0.07-0.884c0.312-3.94,3.556-6.91,7.236-6.619
							c2.555,0.202,4.793,1.986,5.7,4.547c0.331,0.932,1.159,1.599,2.139,1.726c1.056,0.137,2.033,0.214,3.098,0.245
							c0.987,0.028,1.908-0.5,2.38-1.369c1.301-2.385,3.792-3.796,6.347-3.595c3.678,0.291,6.419,3.734,6.107,7.675
							C404.961,402.103,404.909,402.76,404.897,402.924z M457.603,309.561c-2.644,3.671-7.696,9.531-14.927,12.873
							c-7.402,3.424-15.403,3.358-19.474,3.033c2.642-3.672,7.697-9.532,14.923-12.874c7.348-3.397,15.299-3.363,19.381-3.041
							C457.538,309.555,457.57,309.558,457.603,309.561z M435.575,423.355c-9.101-0.719-15.867-9.332-15.089-19.199
							c0.014-0.17,0.065-0.83,0.07-0.883c0.312-3.942,3.559-6.911,7.237-6.62c2.555,0.201,4.793,1.987,5.701,4.547
							c0.33,0.931,1.157,1.598,2.138,1.725c1.053,0.137,2.032,0.214,3.098,0.245c0.987,0.028,1.907-0.501,2.381-1.368
							c1.3-2.387,3.79-3.797,6.345-3.596c3.68,0.291,6.419,3.733,6.106,7.675c-0.004,0.062-0.056,0.718-0.068,0.883
							C452.713,416.632,444.677,424.074,435.575,423.355z"/>
					</g>
					<g display="none">
						<g id="group-107svg" display="inline">
							<path id="path-5_9_" fill="#D79A28" stroke="#402E21" stroke-width="5.9686" stroke-miterlimit="10" d="M255.754,296.417
								c0-5.834-8.225-12.064-8.225-16.915c0-12.059,18.782-21.833,41.949-21.833c9.132,0,17.575,1.523,24.46,4.1
								c0.64-1.189,1.063-2.333,1.063-3.422c0-12.058-18.781-21.832-41.949-21.832c-23.168,0-41.95,9.774-41.95,21.832
								c0,4.853,8.223,11.083,8.223,16.915l-3.297,41.217c0,5.529,4.313,9.536,10.222,9.536h1.404h5.73L255.754,296.417z"/>
							<path id="path-6_9_" opacity="0.35" fill="#050706" enable-background="new    " d="M289.479,257.67
								c9.132,0,17.575,1.522,24.46,4.1c0.461-0.859,0.806-1.696,0.965-2.502c-7.673-4.381-18.726-7.131-31.01-7.131
								c-23.168,0-41.949,9.774-41.949,21.834c0,4.851,8.223,11.079,8.223,16.914l-2.811,35.13h0.299h5.73l2.369-29.598
								c0-5.833-8.225-12.063-8.225-16.914C247.529,267.444,266.312,257.67,289.479,257.67z"/>
							<path id="path-7_9_" fill="#FAB716" stroke="#402E21" stroke-width="5.9686" stroke-miterlimit="10" d="M316.597,347.169
								c5.908,0,10.108-4.484,10.108-10.012l-3.201-40.949c0-6.12,7.924-11.948,7.924-16.706c0-12.058-18.78-21.833-41.949-21.833
								c-23.167,0-41.949,9.775-41.949,21.833c0,4.851,8.225,11.081,8.225,16.915l-3.298,41.216c0,5.53,4.313,9.536,10.222,9.536
								h1.404H316.597L316.597,347.169z"/>
							<path id="path-8_9_" opacity="0.25" fill="#050706" enable-background="new    " d="M331.428,279.503
								c0-12.059-18.78-21.833-41.949-21.833c-1.575,0-3.125,0.049-4.653,0.137c20.978,1.206,37.294,10.457,37.294,21.696
								c0,4.757-7.924,10.585-7.924,16.705l3.202,40.95c0,5.526-4.199,10.011-10.109,10.011h9.309
								c5.908,0,10.108-4.484,10.108-10.011l-3.201-40.95C323.504,290.088,331.428,284.26,331.428,279.503z"/>
							<path id="path-9_8_" fill="#B07F2C" d="M310.532,295.339c0,1.584-1.295,2.868-2.896,2.868c-1.599,0-2.896-1.283-2.896-2.868
								s1.297-2.871,2.896-2.871C309.237,292.469,310.532,293.755,310.532,295.339z"/>
							<path id="path-10_7_" fill="#B07F2C" d="M291.914,287.962c0,1.584-1.293,2.869-2.894,2.869s-2.896-1.284-2.896-2.869
								s1.296-2.868,2.896-2.868S291.914,286.377,291.914,287.962z"/>
							<path id="path-11_7_" fill="#B07F2C" d="M273.299,295.339c0,1.584-1.295,2.868-2.896,2.868c-1.599,0-2.896-1.283-2.896-2.868
								s1.296-2.871,2.896-2.871C272.003,292.469,273.299,293.755,273.299,295.339z"/>
							<path id="path-12_7_" fill="#B07F2C" d="M273.299,311.938c0,1.585-1.295,2.867-2.896,2.867c-1.599,0-2.896-1.282-2.896-2.867
								c0-1.585,1.296-2.87,2.896-2.87C272.003,309.068,273.299,310.353,273.299,311.938z"/>
							<path id="path-13_6_" fill="#B07F2C" d="M291.914,317.469c0,1.585-1.293,2.869-2.894,2.869s-2.896-1.284-2.896-2.869
								c0-1.583,1.296-2.867,2.896-2.867C290.621,314.6,291.914,315.885,291.914,317.469z"/>
							<path id="path-14_4_" fill="#B07F2C" d="M291.914,302.715c0,1.585-1.293,2.869-2.894,2.869s-2.896-1.283-2.896-2.869
								s1.296-2.868,2.896-2.868S291.914,301.13,291.914,302.715z"/>
							<path id="path-15_4_" fill="#B07F2C" d="M310.532,310.092c0,1.586-1.295,2.87-2.896,2.87c-1.599,0-2.896-1.284-2.896-2.87
								c0-1.583,1.297-2.868,2.896-2.868C309.237,307.224,310.532,308.508,310.532,310.092z"/>
							<path id="path-16_4_" fill="#B07F2C" d="M273.299,330.379c0,1.584-1.295,2.868-2.896,2.868c-1.599,0-2.896-1.284-2.896-2.868
								s1.296-2.868,2.896-2.868C272.003,327.511,273.299,328.795,273.299,330.379z"/>
							<path id="path-17_3_" fill="#B07F2C" d="M291.914,335.912c0,1.583-1.293,2.869-2.894,2.869s-2.896-1.286-2.896-2.869
								c0-1.584,1.296-2.87,2.896-2.87S291.914,334.328,291.914,335.912z"/>
							<path id="path-18_2_" fill="#B07F2C" d="M310.532,326.691c0,1.583-1.295,2.869-2.896,2.869c-1.599,0-2.896-1.285-2.896-2.869
								c0-1.584,1.297-2.869,2.896-2.869C309.237,323.821,310.532,325.107,310.532,326.691z"/>
						</g>
					</g>
					<g>
						<path fill="#1AABBF" d="M289.269,349.931c33.355,0,60.622-26.576,61.736-59.666H227.532
							C228.646,323.355,255.913,349.931,289.269,349.931z M257.616,325.854c1.164,0,2.107,0.943,2.107,2.106
							s-0.943,2.106-2.105,2.106c-1.164,0-2.107-0.943-2.107-2.106S256.454,325.854,257.616,325.854z M249.193,317.431
							c1.163,0,2.106,0.943,2.106,2.106s-0.943,2.105-2.105,2.105c-1.164,0-2.107-0.943-2.107-2.105S248.03,317.431,249.193,317.431
							z"/>
						<path fill="#FFFFFF" d="M346.462,286.054c-0.497-1.398-1.479-2.606-2.801-3.37c-0.568-0.327-0.951-0.9-1.036-1.55
							c-0.085-0.649,0.136-1.301,0.6-1.764c1.596-1.595,2.225-3.936,1.643-6.108c-0.582-2.173-2.298-3.886-4.477-4.469
							c-0.633-0.169-1.151-0.624-1.401-1.229c-0.251-0.605-0.205-1.292,0.122-1.859c1.129-1.953,1.131-4.377,0.006-6.326
							c-1.125-1.948-3.224-3.158-5.479-3.158c-0.658,0-1.275-0.304-1.674-0.824c-0.399-0.52-0.533-1.195-0.363-1.828
							c0.585-2.179-0.041-4.521-1.632-6.112s-3.933-2.217-6.111-1.632c-0.633,0.169-1.309,0.036-1.828-0.363
							s-0.824-1.017-0.823-1.671c0-2.256-1.21-4.356-3.157-5.481c-1.949-1.125-4.373-1.123-6.326,0.006
							c-0.566,0.328-1.254,0.373-1.859,0.123c-0.605-0.251-1.06-0.769-1.229-1.401c-0.583-2.179-2.296-3.895-4.47-4.477
							c-2.173-0.583-4.514,0.047-6.108,1.643c-0.463,0.463-1.115,0.685-1.764,0.599c-0.65-0.085-1.223-0.468-1.55-1.035
							c-1.128-1.954-3.226-3.168-5.476-3.168s-4.348,1.214-5.475,3.168c-0.328,0.567-0.9,0.95-1.55,1.035
							c-0.648,0.085-1.302-0.135-1.765-0.599c-1.595-1.596-3.936-2.225-6.108-1.643c-2.174,0.583-3.887,2.298-4.469,4.477
							c-0.17,0.633-0.624,1.151-1.229,1.401c-0.604,0.251-1.292,0.206-1.859-0.123c-1.953-1.128-4.377-1.13-6.326-0.006
							c-1.947,1.125-3.157,3.225-3.157,5.481c0.001,0.655-0.304,1.272-0.823,1.671c-0.52,0.398-1.195,0.532-1.828,0.363
							c-2.178-0.584-4.521,0.041-6.111,1.631c-1.591,1.591-2.216,3.933-1.631,6.112c0.169,0.632,0.035,1.308-0.363,1.828
							c-0.399,0.52-1.017,0.824-1.671,0.824c-2.259,0-4.357,1.21-5.482,3.158c-1.125,1.948-1.122,4.373,0.006,6.326
							c0.328,0.567,0.373,1.254,0.122,1.859c-0.25,0.605-0.768,1.059-1.4,1.229c-2.18,0.583-3.895,2.296-4.478,4.469
							c-0.582,2.173,0.048,4.514,1.644,6.108c0.463,0.463,0.685,1.115,0.6,1.764c-0.086,0.65-0.469,1.223-1.036,1.55
							c-1.322,0.763-2.304,1.971-2.802,3.37H346.462z M317.142,264.855c1.164,0,2.106,0.942,2.106,2.105s-0.942,2.106-2.105,2.106
							s-2.106-0.944-2.106-2.106C315.036,265.799,315.979,264.855,317.142,264.855z M260.986,256.432
							c1.163,0,2.106,0.943,2.106,2.106s-0.943,2.106-2.106,2.106s-2.106-0.943-2.106-2.106S259.823,256.432,260.986,256.432z
							 M260.986,273.278c1.163,0,2.106,0.943,2.106,2.106c0,1.163-0.943,2.106-2.106,2.106s-2.106-0.943-2.106-2.106
							S259.823,273.278,260.986,273.278z M252.563,264.855c1.164,0,2.106,0.942,2.106,2.105s-0.942,2.106-2.105,2.106
							c-1.164,0-2.107-0.944-2.107-2.106C250.456,265.799,251.399,264.855,252.563,264.855z"/>
						<path fill="#3F2D20" d="M355.252,288.16c0-1.163-0.943-2.106-2.105-2.106h-2.322c-0.44-2.138-1.537-4.095-3.129-5.586
							c1.521-2.447,2.001-5.457,1.239-8.296c-0.76-2.838-2.68-5.206-5.221-6.564c0.836-2.758,0.521-5.789-0.949-8.334
							s-3.937-4.335-6.743-4.989c0.095-2.88-0.995-5.726-3.073-7.804c-2.079-2.079-4.924-3.174-7.805-3.075
							c-0.654-2.807-2.443-5.272-4.989-6.742c-2.545-1.47-5.576-1.785-8.334-0.95c-1.358-2.542-3.725-4.461-6.564-5.222
							c-2.839-0.761-5.849-0.282-8.295,1.24c-1.97-2.103-4.753-3.344-7.692-3.344s-5.723,1.241-7.692,3.345
							c-2.446-1.521-5.457-2.001-8.296-1.24c-2.839,0.761-5.206,2.68-6.563,5.222c-2.758-0.836-5.789-0.52-8.334,0.95
							c-2.546,1.469-4.335,3.936-4.989,6.743c-2.883-0.097-5.727,0.996-7.805,3.074s-3.168,4.924-3.073,7.804
							c-2.807,0.654-5.272,2.444-6.743,4.989c-1.469,2.545-1.785,5.576-0.949,8.334c-2.541,1.358-4.461,3.725-5.221,6.564
							c-0.762,2.839-0.282,5.849,1.239,8.295c-1.592,1.491-2.688,3.448-3.129,5.586h-2.322c-1.162,0-2.105,0.942-2.105,2.106
							c0,17.625,6.864,34.194,19.326,46.657c6.748,6.748,14.701,11.851,23.373,15.115H264.7c-1.162,0-2.105,0.942-2.105,2.106
							c0,1.163,0.943,2.105,2.105,2.105h49.137c1.163,0,2.105-0.942,2.105-2.105c0-1.164-0.942-2.106-2.105-2.106h-1.284
							c8.672-3.264,16.625-8.367,23.373-15.115C348.388,322.354,355.252,305.785,355.252,288.16z M234.877,282.685
							c0.567-0.327,0.95-0.9,1.036-1.55c0.085-0.649-0.137-1.301-0.6-1.764c-1.596-1.595-2.226-3.936-1.644-6.108
							c0.583-2.173,2.298-3.886,4.478-4.469c0.633-0.169,1.15-0.624,1.4-1.229c0.252-0.605,0.206-1.292-0.122-1.859
							c-1.128-1.953-1.131-4.377-0.006-6.326c1.125-1.948,3.224-3.158,5.479-3.158c0.657,0,1.274-0.304,1.674-0.824
							c0.398-0.52,0.532-1.195,0.363-1.828c-0.585-2.179,0.04-4.521,1.631-6.112c1.591-1.59,3.934-2.216,6.111-1.631
							c0.633,0.169,1.309,0.035,1.828-0.363c0.52-0.399,0.824-1.017,0.823-1.671c0-2.256,1.21-4.356,3.157-5.481
							c1.949-1.125,4.373-1.123,6.326,0.006c0.567,0.328,1.255,0.373,1.859,0.123c0.605-0.251,1.06-0.769,1.229-1.401
							c0.582-2.179,2.295-3.895,4.469-4.477c2.173-0.582,4.514,0.047,6.108,1.643c0.463,0.464,1.116,0.685,1.765,0.599
							c0.649-0.085,1.222-0.468,1.55-1.035c1.127-1.954,3.225-3.168,5.475-3.168s4.348,1.214,5.475,3.168
							c0.328,0.567,0.9,0.95,1.55,1.035s1.302-0.135,1.765-0.599c1.595-1.596,3.936-2.226,6.108-1.643s3.886,2.298,4.47,4.477
							c0.169,0.633,0.622,1.151,1.228,1.401s1.293,0.205,1.86-0.123c1.953-1.128,4.377-1.131,6.325-0.006s3.158,3.225,3.157,5.481
							c0,0.655,0.305,1.272,0.824,1.671s1.195,0.533,1.828,0.363c2.179-0.585,4.521,0.041,6.111,1.632s2.216,3.933,1.632,6.112
							c-0.17,0.632-0.036,1.308,0.363,1.828c0.398,0.52,1.016,0.824,1.67,0.824c2.259,0,4.357,1.21,5.482,3.158
							c1.125,1.948,1.122,4.373-0.006,6.326c-0.327,0.567-0.373,1.254-0.122,1.859c0.25,0.605,0.768,1.059,1.4,1.229
							c2.18,0.583,3.895,2.296,4.478,4.469c0.582,2.173-0.048,4.514-1.644,6.108c-0.463,0.463-0.685,1.115-0.6,1.764
							c0.086,0.65,0.469,1.223,1.036,1.55c1.323,0.763,2.304,1.971,2.802,3.37H232.075
							C232.573,284.656,233.555,283.448,234.877,282.685z M351.005,290.266c-1.114,33.09-28.381,59.666-61.736,59.666
							s-60.622-26.576-61.736-59.666H351.005z"/>
						<circle fill="#1C1918" cx="257.618" cy="327.96" r="2.106"/>
						<circle fill="#1C1918" cx="249.194" cy="319.537" r="2.106"/>
						<circle fill="#1C1918" cx="260.986" cy="275.384" r="2.106"/>
						<circle fill="#1C1918" cx="252.563" cy="266.961" r="2.106"/>
						<circle fill="#1C1918" cx="317.143" cy="266.961" r="2.106"/>
						<circle fill="#1C1918" cx="260.986" cy="258.538" r="2.106"/>
					</g>
				</g>
			</g>
		</g>
		<g id="Tip_5" display="none">
			<g id="Insert_Finger_4_" display="inline">
				<defs>
					<circle id="SVGID_9_" cx="281.267" cy="281.266" r="281.267"/>
				</defs>
				<clipPath id="SVGID_10_">
					<use xlink:href="#SVGID_9_"  overflow="visible"/>
				</clipPath>
				<circle clip-path="url(#SVGID_10_)" fill="#86D5F7" cx="281.267" cy="281.266" r="281.267"/>
				
					<circle id="Outline_4_" display="none" clip-path="url(#SVGID_10_)" fill="none" stroke="#4F77BB" stroke-width="11.2677" stroke-miterlimit="10" cx="281.267" cy="281.266" r="281.267"/>
				<g clip-path="url(#SVGID_10_)">
					<path fill="#FFD248" d="M257.953,217.709c41.847,0,75.769,33.92,75.769,75.767s-33.922,75.768-75.769,75.768
						c-10.328,0-20.165-2.081-29.141-5.829c27.375-11.417,46.626-38.426,46.626-69.938c0-31.514-19.251-58.522-46.626-69.939
						C237.788,219.79,247.625,217.709,257.953,217.709z"/>
					<path fill="#556B7A" d="M281.266,168.169c69.204,0,125.306,56.103,125.306,125.308c0,69.204-56.103,125.307-125.306,125.307
						c-21.092,0-40.938-5.269-58.381-14.471l-29.042,29.041v-50.198c-23.343-22.759-37.884-54.5-37.884-89.679
						C155.959,224.271,212.062,168.169,281.266,168.169z M333.722,293.477c0-41.847-33.922-75.767-75.769-75.767
						c-10.328,0-20.165,2.081-29.141,5.828c27.375,11.417,46.626,38.426,46.626,69.939c0,31.513-19.251,58.521-46.626,69.938
						c8.976,3.748,18.813,5.829,29.141,5.829C299.8,369.244,333.722,335.323,333.722,293.477z"/>
					<path fill="#010101" d="M189.472,443.907v-58.926c-24.446-24.502-37.884-56.922-37.884-91.504
						c0-34.639,13.489-67.204,37.982-91.697c24.493-24.493,57.058-37.981,91.696-37.981c34.638,0,67.203,13.488,91.696,37.981
						s37.981,57.059,37.981,91.697c0,34.638-13.488,67.203-37.981,91.696c-24.493,24.494-57.058,37.982-91.696,37.982
						c-19.879,0-39.703-4.66-57.54-13.502L189.472,443.907z M281.266,172.541c-66.685,0-120.936,54.251-120.936,120.936
						c0,32.822,12.985,63.559,36.564,86.549l1.319,1.286v41.489l23.859-23.859l2.852,1.505
						c17.566,9.267,36.523,13.966,56.342,13.966c66.684,0,120.936-54.252,120.936-120.936
						C402.203,226.792,347.951,172.541,281.266,172.541z"/>
					<path fill="#010101" d="M257.953,373.615c-10.655,0-21.027-2.074-30.825-6.166l-9.667-4.036l9.668-4.033
						c26.69-11.132,43.937-37,43.937-65.904c0-28.903-17.246-54.772-43.937-65.904l-9.668-4.033l9.667-4.035
						c9.799-4.091,20.17-6.166,30.825-6.166c44.189,0,80.138,35.949,80.138,80.139C338.091,337.666,302.142,373.615,257.953,373.615
						z M240.174,362.633c5.779,1.488,11.726,2.24,17.779,2.24c39.369,0,71.396-32.029,71.396-71.396s-32.027-71.396-71.396-71.396
						c-6.052,0-12,0.751-17.779,2.239c24.382,14.241,39.635,40.358,39.635,69.157C279.809,322.276,264.556,348.391,240.174,362.633z
						"/>
					<rect x="182.184" y="292.019" fill="#010101" width="11.656" height="8.743"/>
					<rect x="222.982" y="262.878" fill="#010101" width="11.656" height="8.743"/>
					<rect x="234.639" y="303.676" fill="#010101" width="11.656" height="8.742"/>
					<rect x="193.842" y="344.474" fill="#010101" width="11.655" height="8.742"/>
					<rect x="193.842" y="233.737" fill="#010101" width="11.655" height="8.743"/>
					<rect x="263.78" y="187.111" fill="#010101" width="11.656" height="8.742"/>
					<rect x="310.406" y="204.596" fill="#010101" width="11.655" height="8.743"/>
					<rect x="374.517" y="268.707" fill="#010101" width="11.655" height="8.742"/>
					<rect x="345.376" y="233.737" fill="#010101" width="11.655" height="8.743"/>
					<rect x="333.718" y="350.301" fill="#010101" width="11.658" height="8.743"/>
					<rect x="310.406" y="379.443" fill="#010101" width="11.655" height="8.742"/>
					<rect x="275.437" y="391.099" fill="#010101" width="11.657" height="8.743"/>
					<rect x="240.466" y="385.271" fill="#010101" width="11.657" height="8.743"/>
					<rect x="362.86" y="326.989" fill="#010101" width="11.656" height="8.742"/>
					<rect x="351.203" y="297.848" fill="#010101" width="11.657" height="8.743"/>
				</g>
			</g>
		</g>
		<g id="Tip_6" display="none">
			<g id="Insert_Finger_5_" display="inline">
				<defs>
					<circle id="SVGID_11_" cx="281.267" cy="281.266" r="281.267"/>
				</defs>
				<clipPath id="SVGID_12_">
					<use xlink:href="#SVGID_11_"  overflow="visible"/>
				</clipPath>
				<circle clip-path="url(#SVGID_12_)" fill="#F8BB63" cx="281.267" cy="281.266" r="281.267"/>
				
					<circle id="Outline_5_" display="none" clip-path="url(#SVGID_12_)" fill="none" stroke="#4F77BB" stroke-width="11.2677" stroke-miterlimit="10" cx="281.267" cy="281.266" r="281.267"/>
				<g clip-path="url(#SVGID_12_)">
					<path fill="#DAE7EF" d="M326.301,328.42c-0.934-11.575-4.262-22.716-8.449-33.551c-5.127-13.266-4.079-32.023,3.522-41.858
						c3.869-5.008,5.572-11.423,5.542-17.752c-0.218-41.011-22.496-50.798-28.708-52.729c-1.314-0.411-2.425-1.257-3.108-2.456
						c-1.401-2.442-2.209-5.736-2.672-8.869c-0.424-2.87-2.926-4.903-5.817-4.66c-1.712,0.146-3.497,0.224-5.344,0.224
						s-3.633-0.079-5.343-0.224c-2.893-0.243-5.396,1.79-5.819,4.66c-0.463,3.133-1.27,6.427-2.671,8.869
						c-0.684,1.195-1.794,2.045-3.108,2.456c-6.211,1.93-28.496,11.721-28.708,52.729c-0.031,6.33,1.667,12.745,5.542,17.752
						c7.604,9.835,8.649,28.592,3.522,41.858c-4.188,10.831-7.512,21.976-8.451,33.551c-1.542,19.063-2.971,45.561-0.996,63.35
						c0,8.472,12.404,15.341,43.475,15.341c31.07,0,48.59-6.869,48.59-15.341C329.272,373.985,327.845,347.487,326.301,328.42z"/>
					<path fill="#4FA8DE" d="M235.701,233.196c-0.017,0.7-0.08,1.344-0.084,2.063c-0.035,6.33,1.671,12.745,5.542,17.752
						c7.604,9.835,8.649,28.592,3.522,41.858c-4.188,10.831-7.512,21.976-8.451,33.551c-0.052,0.648-0.101,1.367-0.154,2.033
						c11.568,3.125,27.518,5.068,45.191,5.068c17.671,0,33.623-1.943,45.19-5.064c-0.052-0.666-0.101-1.384-0.155-2.033
						c-0.934-11.575-4.262-22.721-8.449-33.553c-5.127-13.264-4.083-32.022,3.522-41.856c3.869-5.008,5.572-11.422,5.542-17.753
						c-0.006-0.723-0.066-1.363-0.085-2.063c-11.594,3.174-27.702,5.162-45.565,5.162S247.291,236.374,235.701,233.196z"/>
					<path fill="#FFFFFF" d="M271.312,391.067c-8.984,0-15.446-2.067-19.233-6.152c-3.285-3.545-3.403-7.402-3.346-8.659v-4.937
						c0-2.438,1.971-4.409,4.408-4.409c2.439,0,4.409,1.971,4.409,4.409l-0.032,5.572l0,0c0.013,0,0.049,1.076,1.187,2.2
						c1.349,1.326,5.078,3.531,14.724,3.121c2.482-0.154,4.488,1.799,4.576,4.232c0.092,2.434-1.798,4.484-4.232,4.577
						C272.93,391.051,272.11,391.067,271.312,391.067z"/>
					<path fill="#FFFFFF" d="M253.136,360.381c-2.438,0-4.408-1.97-4.408-4.408v-5.158c0-2.437,1.971-4.408,4.408-4.408
						c2.438,0,4.408,1.971,4.408,4.408v5.158C257.543,358.411,255.574,360.381,253.136,360.381z"/>
					<path fill="#FFFFFF" d="M258.258,222.315c-0.26,0-0.515-0.022-0.784-0.07c-2.394-0.432-3.989-2.72-3.563-5.119
						c2.918-16.298,17.163-23.355,17.761-23.646c2.213-1.05,4.832-0.132,5.891,2.049c1.053,2.186,0.145,4.818-2.037,5.88
						c-0.216,0.106-10.836,5.55-12.938,17.276C262.209,220.817,260.353,222.315,258.258,222.315z"/>
					<path fill="#213D76" d="M281.266,151.429c-7.908,0-14.318,2.138-14.318,4.774v14.318c0,2.636,6.41,4.774,14.318,4.774
						c7.909,0,14.318-2.138,14.318-4.774v-14.318C295.584,153.566,289.175,151.429,281.266,151.429z"/>
					<path fill="#226AB4" d="M280.596,163.904h-3.584c-1.217,0-2.204-0.987-2.204-2.204s0.987-2.204,2.204-2.204h3.584
						c1.217,0,2.204,0.987,2.204,2.204S281.813,163.904,280.596,163.904z"/>
				</g>
			</g>
		</g>
	</g>
</g>
<g id="Status_bar">
</g>
<g id="Guides">
</g>
</svg>
