<?xml version="1.0" encoding="utf-8"?>
<!-- Generator: Adobe Illustrator 16.0.0, SVG Export Plug-In . SVG Version: 6.00 Build 0)  -->
<!DOCTYPE svg PUBLIC "-//W3C//DTD SVG 1.1//EN" "http://www.w3.org/Graphics/SVG/1.1/DTD/svg11.dtd">
<svg version="1.1" xmlns="http://www.w3.org/2000/svg" xmlns:xlink="http://www.w3.org/1999/xlink" x="0px" y="0px"
	 width="261.048px" height="215.05px" viewBox="0 0 261.048 215.05" enable-background="new 0 0 261.048 215.05"
	 xml:space="preserve">
<g id="Layer_3">
	<g>
		<g id="_x37_.1_2_">
			<g id="_x37_.1_3_">
				<path fill="none" stroke="#D8D9D8" stroke-width="3.45" stroke-miterlimit="10" d="M259.323,208.724
					c0,2.541-2.059,4.601-4.6,4.601H6.324c-2.541,0-4.6-2.06-4.6-4.601V6.325c0-2.541,2.059-4.6,4.6-4.6h248.399
					c2.541,0,4.6,2.06,4.6,4.6V208.724z"/>
			</g>
			<g>
				<polygon fill="#CF86B9" points="75.455,120.329 77.402,120.544 78.92,118.379 88.663,103.44 110.315,151.726 114.646,161.686 
					118.328,151.509 142.579,81.787 163.148,133.97 165.748,140.683 170.295,135.27 183.504,119.896 211.868,115.998 
					181.122,111.668 179.389,111.235 177.873,113.184 168.561,124.009 146.476,67.929 142.146,57.102 138.248,67.929 
					113.779,138.301 93.427,92.613 90.179,85.467 85.848,91.963 72.639,111.884 48.605,115.998 				"/>
			</g>
		</g>
	</g>
</g>
<g id="Status_bar">
</g>
<g id="Guides">
</g>
</svg>
