<?xml version="1.0" encoding="utf-8"?>
<!-- Generator: Adobe Illustrator 16.0.0, SVG Export Plug-In . SVG Version: 6.00 Build 0)  -->
<!DOCTYPE svg PUBLIC "-//W3C//DTD SVG 1.1//EN" "http://www.w3.org/Graphics/SVG/1.1/DTD/svg11.dtd">
<svg version="1.1" xmlns="http://www.w3.org/2000/svg" xmlns:xlink="http://www.w3.org/1999/xlink" x="0px" y="0px"
	 width="453.97px" height="111.706px" viewBox="0 0 453.97 111.706" enable-background="new 0 0 453.97 111.706"
	 xml:space="preserve">
<g id="Layer_3">
	<g>
		<g>
			<g id="Height">
				<path fill="none" stroke="#D8D9D8" stroke-width="4.6" stroke-miterlimit="10" d="M451.625,56.427c0,25.405-20.595,46-45.999,46
					h-349.6c-25.405,0-46-20.595-46-46v-1.15c0-25.406,20.595-46,46-46h349.6c25.404,0,45.999,20.594,45.999,46V56.427z"/>
				<path display="none" fill="#4F77BB" d="M238.209,55.852c0,30.814-24.952,55.799-55.75,55.854c-0.036,0-126.569,0-126.604,0
					C25.008,111.706,0,86.7,0,55.852C0,25.004,25.008,0,55.855,0c0.164,0,126.83-0.001,126.997,0
					C213.471,0.267,238.209,25.17,238.209,55.852z"/>
				<path fill="#4F77BB" d="M453.97,55.852c0,30.814-24.951,55.799-55.75,55.854c-0.035,0-126.57,0-126.604,0
					c-30.847,0-55.854-25.006-55.854-55.854C215.763,25.004,240.77,0,271.616,0c0.166,0,126.83-0.001,126.996,0
					C429.231,0.267,453.97,25.17,453.97,55.852z"/>
			</g>
		</g>
	</g>
</g>
<g id="Status_bar">
</g>
<g id="Guides">
</g>
</svg>
