<?xml version="1.0" encoding="utf-8"?>
<!-- Generator: Adobe Illustrator 16.0.0, SVG Export Plug-In . SVG Version: 6.00 Build 0)  -->
<!DOCTYPE svg PUBLIC "-//W3C//DTD SVG 1.1//EN" "http://www.w3.org/Graphics/SVG/1.1/DTD/svg11.dtd">
<svg version="1.1" xmlns="http://www.w3.org/2000/svg" xmlns:xlink="http://www.w3.org/1999/xlink" x="0px" y="0px"
	 width="323.484px" height="323.438px" viewBox="0 0 323.484 323.438" enable-background="new 0 0 323.484 323.438"
	 xml:space="preserve">
<g id="Layer_3">
	<g>
		<g id="Settings">
			<circle fill="#8DCFB1" cx="161.742" cy="161.719" r="161.628"/>
			<g>
				<g>
					<path fill="#FFFFFF" stroke="#FFFFFF" stroke-width="2.6372" stroke-miterlimit="10" d="M225.605,146.188l-10.1-1.715
						c-1.052-3.396-2.404-6.672-4.057-9.799l5.951-8.326c2.525-3.549,2.135-8.389-0.963-11.453l-8.957-8.959
						c-1.683-1.682-3.908-2.615-6.283-2.615c-1.863,0-3.637,0.572-5.139,1.654l-8.358,5.951c-3.245-1.713-6.644-3.127-10.159-4.176
						l-1.684-9.982c-0.721-4.299-4.418-7.424-8.777-7.424h-12.655c-4.36,0-8.058,3.125-8.778,7.424l-1.744,10.221
						c-3.365,1.053-6.643,2.436-9.77,4.117l-8.266-5.951c-1.504-1.082-3.307-1.652-5.17-1.652c-2.376,0-4.63,0.93-6.283,2.613
						l-8.988,8.959c-3.066,3.066-3.486,7.906-0.962,11.453l6.014,8.445c-1.654,3.158-2.978,6.436-3.999,9.832l-9.98,1.682
						c-4.298,0.723-7.424,4.42-7.424,8.779v12.654c0,4.359,3.126,8.057,7.424,8.777l10.221,1.742
						c1.052,3.369,2.435,6.646,4.117,9.771l-5.92,8.236c-2.525,3.547-2.135,8.387,0.961,11.453l8.957,8.959
						c1.684,1.684,3.908,2.613,6.283,2.613c1.864,0,3.639-0.568,5.141-1.652l8.447-6.012c3.035,1.592,6.223,2.885,9.498,3.908
						l1.684,10.1c0.723,4.301,4.42,7.424,8.778,7.424h12.685c4.359,0,8.057-3.123,8.778-7.424l1.714-10.1
						c3.396-1.053,6.672-2.404,9.799-4.061l8.326,5.955c1.505,1.082,3.307,1.652,5.17,1.652l0,0c2.375,0,4.6-0.932,6.282-2.617
						l8.959-8.955c3.066-3.066,3.487-7.906,0.962-11.453l-5.951-8.357c1.652-3.156,3.035-6.434,4.059-9.801l10.1-1.684
						c4.298-0.721,7.424-4.418,7.424-8.777v-12.654C233.032,150.605,229.905,146.908,225.605,146.188z M224.914,167.619
						c0,0.393-0.27,0.723-0.66,0.781l-12.625,2.105c-1.593,0.27-2.855,1.441-3.246,2.977c-1.144,4.42-2.887,8.656-5.23,12.594
						c-0.813,1.383-0.752,3.096,0.181,4.418l7.425,10.463c0.211,0.301,0.18,0.75-0.091,1.023l-8.957,8.955
						c-0.211,0.211-0.423,0.242-0.573,0.242c-0.18,0-0.33-0.061-0.45-0.152l-10.43-7.424c-1.294-0.934-3.036-0.992-4.419-0.18
						c-3.939,2.344-8.178,4.088-12.597,5.23c-1.563,0.391-2.734,1.682-2.976,3.246l-2.135,12.625
						c-0.06,0.391-0.389,0.662-0.781,0.662h-12.655c-0.392,0-0.722-0.271-0.782-0.662l-2.103-12.625
						c-0.271-1.594-1.444-2.855-2.977-3.246c-4.298-1.113-8.446-2.828-12.323-5.051c-0.632-0.359-1.354-0.539-2.047-0.539
						c-0.811,0-1.651,0.24-2.344,0.75l-10.521,7.482c-0.149,0.092-0.3,0.152-0.449,0.152c-0.121,0-0.361-0.031-0.572-0.24
						l-8.958-8.957c-0.27-0.27-0.301-0.691-0.09-1.023l7.395-10.371c0.933-1.324,0.993-3.066,0.181-4.447
						c-2.346-3.908-4.148-8.146-5.291-12.564c-0.42-1.535-1.684-2.707-3.246-2.979l-12.715-2.164
						c-0.391-0.059-0.662-0.391-0.662-0.781v-12.654c0-0.391,0.271-0.721,0.662-0.781l12.535-2.105
						c1.593-0.271,2.885-1.443,3.275-3.006c1.113-4.418,2.825-8.688,5.142-12.625c0.811-1.383,0.722-3.096-0.211-4.389
						l-7.484-10.521c-0.212-0.301-0.181-0.754,0.09-1.023l8.958-8.955c0.211-0.211,0.42-0.24,0.57-0.24
						c0.182,0,0.331,0.059,0.451,0.148l10.37,7.395c1.323,0.932,3.065,0.992,4.449,0.182c3.908-2.346,8.147-4.15,12.565-5.293
						c1.533-0.42,2.706-1.682,2.976-3.244l2.165-12.717c0.061-0.391,0.391-0.66,0.781-0.66h12.656c0.39,0,0.721,0.27,0.78,0.66
						l2.105,12.535c0.27,1.594,1.441,2.887,3.005,3.275c4.539,1.145,8.867,2.918,12.896,5.293c1.384,0.811,3.097,0.752,4.421-0.182
						l10.369-7.455c0.15-0.09,0.3-0.148,0.451-0.148c0.119,0,0.361,0.029,0.57,0.24l8.959,8.957c0.271,0.271,0.301,0.691,0.09,1.021
						l-7.424,10.432c-0.932,1.293-0.993,3.035-0.183,4.42c2.345,3.938,4.089,8.176,5.231,12.594
						c0.391,1.564,1.684,2.736,3.247,2.979l12.625,2.133c0.392,0.059,0.661,0.391,0.661,0.781v12.654H224.914z"/>
					<path fill="#FFFFFF" stroke="#FFFFFF" stroke-width="2.6372" stroke-miterlimit="10" d="M161.037,130.225
						c-17.135,0-31.052,13.92-31.052,31.053c0,17.135,13.917,31.051,31.052,31.051s31.053-13.916,31.053-31.051
						C192.09,144.145,178.172,130.225,161.037,130.225z M161.037,184.215c-12.654,0-22.936-10.283-22.936-22.938
						c0-12.656,10.281-22.936,22.936-22.936s22.936,10.279,22.936,22.936C183.973,173.932,173.691,184.215,161.037,184.215z"/>
				</g>
			</g>
		</g>
	</g>
</g>
<g id="Status_bar">
</g>
<g id="Guides">
</g>
</svg>
