<?xml version="1.0" encoding="utf-8"?>
<!-- Generator: Adobe Illustrator 16.0.0, SVG Export Plug-In . SVG Version: 6.00 Build 0)  -->
<!DOCTYPE svg PUBLIC "-//W3C//DTD SVG 1.1//EN" "http://www.w3.org/Graphics/SVG/1.1/DTD/svg11.dtd">
<svg version="1.1" xmlns="http://www.w3.org/2000/svg" xmlns:xlink="http://www.w3.org/1999/xlink" x="0px" y="0px"
	 width="562.52px" height="562.52px" viewBox="0 0 562.52 562.52" enable-background="new 0 0 562.52 562.52" xml:space="preserve">
<g id="Layer_3">
	<g>
		<g id="Insert_Finger_6_">
			<defs>
				<circle id="SVGID_1_" cx="281.26" cy="281.26" r="281.26"/>
			</defs>
			<clipPath id="SVGID_2_">
				<use xlink:href="#SVGID_1_"  overflow="visible"/>
			</clipPath>
			<circle clip-path="url(#SVGID_2_)" fill="#E51E25" cx="281.26" cy="281.26" r="281.26"/>
			<path clip-path="url(#SVGID_2_)" fill="#FFFFFF" d="M388.886,338.088l-94.043-162.886c-4.577-7.929-16.021-7.929-20.598,0
				l-94.041,162.886c-4.578,7.929,1.145,17.839,10.3,17.839h188.082C387.74,355.927,393.463,346.017,388.886,338.088z
				 M284.546,338.266c-6.433,0-11.649-5.216-11.649-11.649c0-6.433,5.216-11.648,11.649-11.648c6.432,0,11.647,5.216,11.647,11.648
				C296.193,333.05,290.978,338.266,284.546,338.266z M296.483,279.73c0,6.595-5.344,11.939-11.938,11.939
				s-11.939-5.344-11.939-11.939v-57.66c0-6.595,5.344-11.94,11.939-11.94s11.938,5.345,11.938,11.94V279.73z"/>
			<g clip-path="url(#SVGID_2_)">
				<defs>
					<polygon id="SVGID_3_" points="283.664,386.791 283.773,102.702 393.26,102.813 393.15,386.902 					"/>
				</defs>
				<clipPath id="SVGID_4_">
					<use xlink:href="#SVGID_3_"  overflow="visible"/>
				</clipPath>
				<path clip-path="url(#SVGID_4_)" fill="#EAEAEA" d="M388.886,338.088l-94.043-162.886c-4.577-7.929-16.021-7.929-20.598,0
					l-94.041,162.886c-4.578,7.929,1.145,17.839,10.3,17.839h188.082C387.74,355.927,393.463,346.017,388.886,338.088z
					 M284.546,338.266c-6.433,0-11.649-5.216-11.649-11.649c0-6.433,5.216-11.648,11.649-11.648c6.432,0,11.647,5.216,11.647,11.648
					C296.193,333.05,290.978,338.266,284.546,338.266z M296.483,279.73c0,6.595-5.344,11.939-11.938,11.939
					s-11.939-5.344-11.939-11.939v-57.66c0-6.595,5.344-11.94,11.939-11.94s11.938,5.345,11.938,11.94V279.73z"/>
			</g>
		</g>
	</g>
</g>
<g id="Status_bar">
</g>
<g id="Guides">
</g>
</svg>
