<?xml version="1.0" encoding="utf-8"?>
<!-- Generator: Adobe Illustrator 16.0.0, SVG Export Plug-In . SVG Version: 6.00 Build 0)  -->
<!DOCTYPE svg PUBLIC "-//W3C//DTD SVG 1.1//EN" "http://www.w3.org/Graphics/SVG/1.1/DTD/svg11.dtd">
<svg version="1.1" id="Layer_3" xmlns="http://www.w3.org/2000/svg" xmlns:xlink="http://www.w3.org/1999/xlink" x="0px" y="0px"
	 width="59.092px" height="58.728px" viewBox="0 0 59.092 58.728" enable-background="new 0 0 59.092 58.728" xml:space="preserve">
<g id="Medicines_3_">
	<path fill="#4F77BB" d="M12.926,29.181L36.193,5.912c1.479-1.479,3.693-2.585,6.279-2.585c2.585,0,4.801,1.105,6.647,2.585
		c3.692,3.692,3.692,9.603,0,12.928L38.779,29.181h5.172l7.387-7.388c5.168-5.171,5.168-13.294,0-18.098
		C48.752,1.111,45.426,0,42.104,0c-3.325,0-6.28,0.741-8.866,3.327L9.971,26.966c-1.109,0.735-1.846,1.847-2.586,3.32
		C9.232,29.547,11.079,29.181,12.926,29.181z"/>
	<path fill="#4F77BB" d="M26.959,20.313l-8.863,8.867h17.357L26.959,20.313z"/>
	<path fill="#4F77BB" d="M46.165,32.873H12.926C5.908,32.873,0,38.781,0,45.799c0,7.021,5.908,12.929,12.926,12.929h33.239
		c7.019,0,12.927-5.908,12.927-12.929C59.092,38.781,53.184,32.873,46.165,32.873z M46.165,55.032h-16.62V40.26H12.926
		c-4.064,0-7.387,2.215-9.233,4.434c0.739-4.434,4.433-8.129,9.233-8.129h33.239c5.173,0,9.234,4.064,9.234,9.234
		C55.399,50.971,51.338,55.032,46.165,55.032z"/>
</g>
</svg>
