<?xml version="1.0" encoding="utf-8"?>
<!-- Generator: Adobe Illustrator 16.0.0, SVG Export Plug-In . SVG Version: 6.00 Build 0)  -->
<!DOCTYPE svg PUBLIC "-//W3C//DTD SVG 1.1//EN" "http://www.w3.org/Graphics/SVG/1.1/DTD/svg11.dtd">
<svg version="1.1" xmlns="http://www.w3.org/2000/svg" xmlns:xlink="http://www.w3.org/1999/xlink" x="0px" y="0px"
	 width="43.316px" height="32.387px" viewBox="0 0 43.316 32.387" enable-background="new 0 0 43.316 32.387" xml:space="preserve">
<g id="Layer_3">
	<g>
		<g id="Table">
			<g id="Icons">
				<path fill="#4C4C4E" d="M10.727,31.816c0.251,0.364,0.662,0.571,1.098,0.571c0.091,0,0.183-0.032,0.274-0.052
					c0.067,0.013,0.132,0.044,0.198,0.044c0.392,0,0.771-0.17,1.037-0.462L42.916,2.33c0.533-0.532,0.533-1.396,0-1.93
					s-1.398-0.533-1.932,0L12.08,29.308l-9.748-9.745c-0.533-0.535-1.398-0.535-1.932,0c-0.533,0.532-0.533,1.396,0,1.931
					L10.727,31.816z"/>
			</g>
		</g>
	</g>
</g>
<g id="Status_bar">
	<rect x="-992.531" y="-10.282" display="none" width="1242.49" height="60"/>
</g>
<g id="Guides">
</g>
</svg>
