<?xml version="1.0" encoding="utf-8"?>
<!-- Generator: Adobe Illustrator 16.0.0, SVG Export Plug-In . SVG Version: 6.00 Build 0)  -->
<!DOCTYPE svg PUBLIC "-//W3C//DTD SVG 1.1//EN" "http://www.w3.org/Graphics/SVG/1.1/DTD/svg11.dtd">
<svg version="1.1" xmlns="http://www.w3.org/2000/svg" xmlns:xlink="http://www.w3.org/1999/xlink" x="0px" y="0px"
	 width="215.875px" height="215.859px" viewBox="0 0 215.875 215.859" enable-background="new 0 0 215.875 215.859"
	 xml:space="preserve">
<g id="Layer_3">
	<g>
		<circle fill="#8DCFB1" cx="107.938" cy="107.929" r="107.783"/>
		<path fill="#FFFFFF" d="M141.585,83.675c-1.961,1.135-2.684,3.715-1.547,5.676c3.303,5.676,4.955,12.076,4.955,18.578
			s-1.756,12.902-4.955,18.578c-3.2,5.678-7.847,10.322-13.522,13.625c-5.676,3.201-12.076,4.955-18.578,4.955
			s-12.902-1.754-18.579-4.955c-5.675-3.303-10.321-7.947-13.623-13.625c-3.201-5.676-4.955-12.076-4.955-18.578
			s1.754-12.902,4.955-18.578l0,0c3.302-5.676,7.948-10.322,13.623-13.625c4.438-2.58,9.393-4.129,14.451-4.746v36.949
			c0,0.105,0,0.105,0,0.207c0,0.104,0,0.311,0,0.412c0,0.104,0.103,0.311,0.103,0.412c0,0.104,0.104,0.209,0.104,0.414
			c0.103,0.104,0.103,0.309,0.207,0.412c0,0.104,0.104,0.104,0.104,0.207s0.102,0.104,0.102,0.104c0,0.104,0.104,0.104,0.104,0.207
			c0.104,0.205,0.31,0.309,0.414,0.516l0,0c0.206,0.207,0.308,0.309,0.517,0.414l0.103,0.102c0.205,0.104,0.309,0.205,0.516,0.311
			h0.102c0.209,0.104,0.414,0.205,0.724,0.205c0.104,0,0.104,0,0.207,0c0.206,0,0.516,0.104,0.722,0.104
			c0.207,0,0.516,0,0.723-0.104h0.104c0.206-0.102,0.516-0.102,0.721-0.205h0.103c0.105-0.105,0.311-0.105,0.414-0.207
			l22.503-12.799c1.959-1.135,2.683-3.715,1.547-5.678c-1.135-1.961-3.716-2.682-5.678-1.547l-16.205,9.289V66.644
			c0-2.271-1.856-4.129-4.128-4.129c-7.946,0-15.793,2.064-22.707,6.09c-6.915,4.025-12.593,9.701-16.619,16.617l0,0
			c-4.023,6.916-6.089,14.76-6.089,22.707s2.065,15.791,6.089,22.709c4.026,6.914,9.704,12.59,16.619,16.617
			c6.914,4.023,14.761,6.09,22.707,6.09c7.948,0,15.792-2.066,22.707-6.09c6.915-4.027,12.593-9.703,16.619-16.617
			c4.025-6.918,6.089-14.762,6.089-22.709s-2.063-15.791-6.089-22.707C146.127,83.261,143.547,82.536,141.585,83.675z
			 M107.938,109.478c-0.825,0-1.547-0.723-1.547-1.549c0-0.824,0.722-1.547,1.547-1.547s1.547,0.723,1.547,1.547
			C109.484,108.755,108.763,109.478,107.938,109.478z"/>
	</g>
</g>
<g id="Status_bar">
</g>
<g id="Guides">
</g>
</svg>
