<?xml version="1.0" encoding="utf-8"?>
<!-- Generator: Adobe Illustrator 16.0.0, SVG Export Plug-In . SVG Version: 6.00 Build 0)  -->
<!DOCTYPE svg PUBLIC "-//W3C//DTD SVG 1.1//EN" "http://www.w3.org/Graphics/SVG/1.1/DTD/svg11.dtd">
<svg version="1.1" xmlns="http://www.w3.org/2000/svg" xmlns:xlink="http://www.w3.org/1999/xlink" x="0px" y="0px"
	 width="63.881px" height="63.88px" viewBox="0 0 63.881 63.88" enable-background="new 0 0 63.881 63.88" xml:space="preserve">
<g id="Layer_3">
	<g>
		<g id="Table">
			<g id="Icons">
				<g>
					<path fill="#4C4C4E" d="M55.604,14.88c-1.377,0.799-1.885,2.613-1.088,3.993C56.84,22.866,58,27.368,58,31.939
						s-1.232,9.073-3.484,13.065c-2.25,3.995-5.518,7.26-9.508,9.586c-3.996,2.246-8.494,3.482-13.066,3.482
						c-4.576,0-9.074-1.236-13.068-3.482c-3.992-2.326-7.26-5.591-9.582-9.586c-2.25-3.992-3.484-8.494-3.484-13.065
						s1.234-9.073,3.484-13.066l0,0c2.322-3.993,5.59-7.26,9.582-9.579c3.123-1.819,6.605-2.904,10.162-3.342v25.987
						c0,0.074,0,0.074,0,0.145c0,0.075,0,0.219,0,0.294c0,0.068,0.074,0.215,0.074,0.288c0,0.072,0.07,0.146,0.07,0.29
						c0.074,0.073,0.074,0.219,0.146,0.291c0,0.073,0.074,0.073,0.074,0.145s0.07,0.071,0.07,0.071c0,0.073,0.072,0.073,0.072,0.147
						c0.074,0.145,0.219,0.217,0.291,0.362l0,0c0.146,0.146,0.219,0.218,0.363,0.292l0.074,0.072
						c0.143,0.072,0.215,0.142,0.363,0.217h0.072c0.143,0.071,0.289,0.145,0.506,0.145c0.074,0,0.074,0,0.146,0
						c0.145,0,0.361,0.073,0.506,0.073c0.148,0,0.367,0,0.51-0.073h0.072c0.146-0.073,0.363-0.073,0.51-0.145h0.072
						c0.07-0.075,0.219-0.075,0.289-0.145l15.826-9.003c1.379-0.799,1.889-2.613,1.088-3.99c-0.799-1.382-2.613-1.891-3.994-1.09
						L34.842,26.86V2.904c0-1.599-1.305-2.904-2.9-2.904C26.35,0,20.834,1.451,15.969,4.285c-4.863,2.829-8.855,6.819-11.688,11.686
						l0,0C1.451,20.834,0,26.352,0,31.939c0,5.589,1.451,11.109,4.281,15.969c2.832,4.867,6.824,8.857,11.688,11.687
						c4.865,2.833,10.381,4.285,15.973,4.285c5.588,0,11.105-1.452,15.967-4.285c4.865-2.829,8.859-6.819,11.689-11.687
						c2.832-4.859,4.283-10.38,4.283-15.969c0-5.588-1.451-11.105-4.283-15.969C58.799,14.591,56.982,14.083,55.604,14.88z
						 M31.941,33.029c-0.582,0-1.092-0.508-1.092-1.09c0-0.579,0.51-1.088,1.092-1.088c0.576,0,1.088,0.509,1.088,1.088
						C33.029,32.521,32.518,33.029,31.941,33.029z"/>
					<path fill="#4C4C4E" d="M45.369,8.711c0.363,0.218,0.727,0.29,1.09,0.29c0.797,0,1.521-0.436,1.889-1.089
						c0.578-1.015,0.215-2.396-0.801-2.978c-0.363-0.219-0.727-0.287-1.088-0.287l0,0c-0.801,0-1.525,0.432-1.889,1.086
						C43.992,6.751,44.355,8.059,45.369,8.711z"/>
				</g>
			</g>
		</g>
	</g>
</g>
<g id="Status_bar">
	<rect x="-787.317" y="-2.584" display="none" width="1242.49" height="60"/>
	<rect x="-787.317" y="57.416" display="none" fill="#D1D3D4" width="1242.49" height="132"/>
	<g display="none">
	</g>
</g>
<g id="Guides">
</g>
</svg>
